<?xml version="1.0" encoding="UTF-8"?>
<svg version="1.1" xmlns="http://www.w3.org/2000/svg" width="225" height="225">
<path d="M0 0 C74.25 0 148.5 0 225 0 C225 74.25 225 148.5 225 225 C150.75 225 76.5 225 0 225 C0 150.75 0 76.5 0 0 Z " fill="#FEFEFE" transform="translate(0,0)"/>
<path d="M0 0 C3.3125 1.5 3.3125 1.5 6 4 C6.63790743 6.04541932 6.99957861 8.06013408 7.375 10.16796875 C7.91679792 12.38705649 7.91679792 12.38705649 11 13.875 C11.99 14.24625 12.98 14.6175 14 15 C16 17 16 17 16.1953125 18.9453125 C16.13020833 20.96354167 16.06510417 22.98177083 16 25 C16.556875 25.103125 17.11375 25.20625 17.6875 25.3125 C22.6612529 26.79118329 22.6612529 26.79118329 25 29 C25.79025082 34.18851548 25.94904492 38.57643263 23 43 C25.97 41.02 28.94 39.04 32 37 C32.495 38.98 32.495 38.98 33 41 C34.32 41 35.64 41 37 41 C37.07419134 45.21749219 37.1286204 49.43463811 37.16479492 53.65258789 C37.17987589 55.08722552 37.2003438 56.52181708 37.22631836 57.95629883 C37.26273437 60.01915859 37.27973243 62.08140858 37.29296875 64.14453125 C37.3086792 65.38565674 37.32438965 66.62678223 37.34057617 67.90551758 C37 71 37 71 35.76965332 72.67211914 C33.48442558 74.38686752 32.18494703 74.3634178 29.3449707 74.34057617 C28.40422195 74.34034958 27.46347321 74.34012299 26.49421692 74.33988953 C24.97534126 74.31666374 24.97534126 74.31666374 23.42578125 74.29296875 C22.38681198 74.28872391 21.34784271 74.28447906 20.27738953 74.28010559 C16.95549724 74.26329849 13.63420925 74.22564196 10.3125 74.1875 C8.06185771 74.17245582 5.81120593 74.15876695 3.56054688 74.14648438 C-1.95984197 74.11338836 -7.47987782 74.06316869 -13 74 C-13.13911725 65.09002912 -13.24567899 56.18043291 -13.31087303 47.26961231 C-13.34216586 43.13174347 -13.3845988 38.99461846 -13.45263672 34.85717773 C-13.51790609 30.86302591 -13.55372146 26.86958871 -13.56926346 22.87494469 C-13.58033656 21.35223833 -13.60196104 19.82957043 -13.63438034 18.30716896 C-13.87705304 6.43754562 -13.87705304 6.43754562 -11.74737549 2.9468689 C-8.0798818 -0.2996746 -4.7115164 -0.75720799 0 0 Z " fill="#507F4A" transform="translate(126,61)"/>
<path d="M0 0 C0.99 0 1.98 0 3 0 C3.28875 0.969375 3.5775 1.93875 3.875 2.9375 C4.64214682 6.10664203 4.64214682 6.10664203 7 7 C9.04174089 7.19778398 9.04174089 7.19778398 11.3125 7.1875 C12.07175781 7.20167969 12.83101562 7.21585937 13.61328125 7.23046875 C16.52231867 7.06215466 16.52231867 7.06215466 21 5 C24.63 5 28.26 5 32 5 C32 26.45 32 47.9 32 70 C24.306875 70.061875 16.61375 70.12375 8.6875 70.1875 C5.04787231 70.22846802 5.04787231 70.22846802 1.3347168 70.27026367 C-0.58544415 70.27902432 -2.50561065 70.28666925 -4.42578125 70.29296875 C-5.4252478 70.30831665 -6.42471436 70.32366455 -7.45446777 70.33947754 C-8.88526672 70.34002136 -8.88526672 70.34002136 -10.3449707 70.34057617 C-11.17325882 70.34723801 -12.00154694 70.35389984 -12.85493469 70.36076355 C-15.53112223 69.91067426 -16.370509 69.13523488 -18 67 C-19.81775831 61.54672508 -18.89330288 55.62950014 -18.6875 49.9375 C-18.65205078 48.63232422 -18.61660156 47.32714844 -18.58007812 45.98242188 C-18.53689453 44.73912109 -18.49371094 43.49582031 -18.44921875 42.21484375 C-18.41143311 41.07136475 -18.37364746 39.92788574 -18.3347168 38.74975586 C-18 36 -18 36 -16 34 C-13.84521484 33.77294922 -13.84521484 33.77294922 -11.2109375 33.8046875 C-10.26992187 33.81113281 -9.32890625 33.81757812 -8.359375 33.82421875 C-6.88210937 33.84935547 -6.88210937 33.84935547 -5.375 33.875 C-4.38242188 33.88402344 -3.38984375 33.89304688 -2.3671875 33.90234375 C0.08878134 33.92595884 2.54427168 33.95889201 5 34 C5 33.01 5 32.02 5 31 C3.948125 30.938125 2.89625 30.87625 1.8125 30.8125 C-2.6516431 29.86112524 -4.0938676 28.41897929 -7 25 C-7.33 24.67 -7.66 24.34 -8 24 C-8.14115161 21.32941149 -8.04247107 18.67567762 -8 16 C-4.32192463 14.77397488 -2.11756073 15.29704423 1.6875 15.9375 C2.86699219 16.13214844 4.04648438 16.32679687 5.26171875 16.52734375 C6.16535156 16.68332031 7.06898437 16.83929688 8 17 C8 16.34 8 15.68 8 15 C7.1646875 14.9071875 7.1646875 14.9071875 6.3125 14.8125 C2.76256169 13.56522438 1.21599271 12.03907571 -1 9 C-1.12484604 5.89445487 -0.66620919 3.02762396 0 0 Z " fill="#652A3D" transform="translate(77,65)"/>
<path d="M0 0 C3.96 0 7.92 0 12 0 C12.66 1.98 13.32 3.96 14 6 C14.61488281 5.855625 15.22976562 5.71125 15.86328125 5.5625 C16.67152344 5.376875 17.47976562 5.19125 18.3125 5 C19.11300781 4.814375 19.91351563 4.62875 20.73828125 4.4375 C23 4 23 4 26 4 C26.495 4.99 26.495 4.99 27 6 C30.68386708 7.05253345 32.78692018 7.06087995 36.5 6 C40.19396728 4.94458078 42.31488006 5.10119026 46 6 C46.33 5.34 46.66 4.68 47 4 C47 4.66 47 5.32 47 6 C47.53109375 5.83628906 48.0621875 5.67257813 48.609375 5.50390625 C51.53876764 4.88643623 54.25822936 4.90498075 57.25 4.9375 C58.86648437 4.95103516 58.86648437 4.95103516 60.515625 4.96484375 C61.33546875 4.97644531 62.1553125 4.98804688 63 5 C63.33 4.34 63.66 3.68 64 3 C64.61875 3.185625 65.2375 3.37125 65.875 3.5625 C68.04160178 4.23686176 68.04160178 4.23686176 70 3 C70 3.66 70 4.32 70 5 C70.928125 4.814375 71.85625 4.62875 72.8125 4.4375 C76 4 76 4 79 5 C79 6.98 79 8.96 79 11 C79.66 11 80.32 11 81 11 C81 11.66 81 12.32 81 13 C79.88625 13.103125 78.7725 13.20625 77.625 13.3125 C76.42875 13.539375 75.2325 13.76625 74 14 C73.34 14.99 72.68 15.98 72 17 C73.60875 17.185625 73.60875 17.185625 75.25 17.375 C78.45844739 17.90974123 80.2398668 18.47716789 83 20 C84.3242287 20.36784131 85.65613912 20.71202981 87 21 C87 22.98 87 24.96 87 27 C86.34 27 85.68 27 85 27 C84.505 28.485 84.505 28.485 84 30 C81.75 30.75 81.75 30.75 79 31 C77.68 29.68 76.36 28.36 75 27 C71.37 28.32 67.74 29.64 64 31 C63.505 30.01 63.505 30.01 63 29 C62.34 28.67 61.68 28.34 61 28 C60.67 27.67 60.34 27.34 60 27 C58.515 27.495 58.515 27.495 57 28 C55.515 28.495 55.515 28.495 54 29 C54 28.34 54 27.68 54 27 C52.35 26.67 50.7 26.34 49 26 C48.505 24.515 48.505 24.515 48 23 C47.505 24.485 47.505 24.485 47 26 C45.515 25.505 45.515 25.505 44 25 C43.67 25.66 43.34 26.32 43 27 C42.34 27 41.68 27 41 27 C41 27.66 41 28.32 41 29 C40.01 29 39.02 29 38 29 C37.67 30.32 37.34 31.64 37 33 C37 31.68 37 30.36 37 29 C36.34 29 35.68 29 35 29 C34.505 30.485 34.505 30.485 34 32 C34 31.34 34 30.68 34 30 C32.515 30.495 32.515 30.495 31 31 C30.14701624 27.32612505 29.89210529 23.9552607 29.9375 20.1875 C29.94652344 19.21167969 29.95554688 18.23585937 29.96484375 17.23046875 C29.97644531 16.49441406 29.98804688 15.75835937 30 15 C25.99439526 12.6883955 23.5261357 13.16182672 19 14 C18.34 14 17.68 14 17 14 C17 14.99 17 15.98 17 17 C18.6396875 16.7525 18.6396875 16.7525 20.3125 16.5 C24 16 24 16 27 16 C27.05399736 17.45792884 27.09279177 18.91642712 27.125 20.375 C27.14820313 21.18710938 27.17140625 21.99921875 27.1953125 22.8359375 C27 25 27 25 25 27 C23.16015625 27.703125 23.16015625 27.703125 21.0625 28.25 C20.37285156 28.44078125 19.68320313 28.6315625 18.97265625 28.828125 C17 29 17 29 14 27 C13.34 26.67 12.68 26.34 12 26 C12 26.66 12 27.32 12 28 C11.360625 27.855625 10.72125 27.71125 10.0625 27.5625 C6.06155212 26.82763202 2.04495104 26.41418889 -2 26 C-2.66 27.32 -3.32 28.64 -4 30 C-4.66 30 -5.32 30 -6 30 C-6 29.01 -6 28.02 -6 27 C-6.94875 27.185625 -7.8975 27.37125 -8.875 27.5625 C-12 28 -12 28 -14 27 C-17.08100341 26.72428521 -20.16171476 26.55336467 -23.25 26.37890625 C-26 26 -26 26 -28 24 C-28.66 24.66 -29.32 25.32 -30 26 C-30.99 26 -31.98 26 -33 26 C-33 23.36 -33 20.72 -33 18 C-30.625 17.875 -30.625 17.875 -28 18 C-27.34 18.66 -26.68 19.32 -26 20 C-25.16855469 19.65775391 -25.16855469 19.65775391 -24.3203125 19.30859375 C-23.59585938 19.02113281 -22.87140625 18.73367187 -22.125 18.4375 C-21.40570313 18.14746094 -20.68640625 17.85742188 -19.9453125 17.55859375 C-18 17 -18 17 -16 18 C-10.84554984 18.17472712 -6.08059532 17.84676589 -1 17 C-1 16.01 -1 15.02 -1 14 C-1.66 13.67 -2.32 13.34 -3 13 C-3 10.03 -3 7.06 -3 4 C-1.02 3.67 0.96 3.34 3 3 C2.01 2.01 1.02 1.02 0 0 Z " fill="#F2F9F0" transform="translate(97,135)"/>
<path d="M0 0 C2.86724686 0.57344937 3.8614515 0.8614515 6 3 C6.556875 2.484375 7.11375 1.96875 7.6875 1.4375 C10 0 10 0 12.625 0.0625 C15 1 15 1 16.3125 3.0625 C16.6528125 4.0215625 16.6528125 4.0215625 17 5 C15.02 6.32 13.04 7.64 11 9 C11.495 10.98 11.495 10.98 12 13 C11.34 13 10.68 13 10 13 C10 13.66 10 14.32 10 15 C10.66 15 11.32 15 12 15 C12 22.92 12 30.84 12 39 C7.2122702 39.06886985 2.42625823 39.12860026 -2.36157227 39.16479492 C-3.99021223 39.17988243 -5.61881156 39.20035506 -7.24731445 39.22631836 C-9.58815535 39.26270449 -11.92845919 39.2797262 -14.26953125 39.29296875 C-15.36186821 39.31619453 -15.36186821 39.31619453 -16.47627258 39.33988953 C-21.50704647 39.34156473 -21.50704647 39.34156473 -23.9206543 37.66918945 C-27.43747032 32.23049433 -25.91060381 25.10800115 -25.6875 18.9375 C-25.65205078 17.63232422 -25.61660156 16.32714844 -25.58007812 14.98242188 C-25.53689453 13.73912109 -25.49371094 12.49582031 -25.44921875 11.21484375 C-25.41143311 10.07136475 -25.37364746 8.92788574 -25.3347168 7.74975586 C-25 5 -25 5 -23 3 C-20.84521484 2.77294922 -20.84521484 2.77294922 -18.2109375 2.8046875 C-17.26992187 2.81113281 -16.32890625 2.81757812 -15.359375 2.82421875 C-14.37453125 2.84097656 -13.3896875 2.85773438 -12.375 2.875 C-11.38242188 2.88402344 -10.38984375 2.89304687 -9.3671875 2.90234375 C-6.91121866 2.92595884 -4.45572832 2.95889201 -2 3 C-1.67 2.34 -1.34 1.68 -1 1 C-1 1.99 -1 2.98 -1 4 C-0.34 4 0.32 4 1 4 C1 4.99 1 5.98 1 7 C1.99 7 2.98 7 4 7 C3.73323796 5.01508358 3.73323796 5.01508358 3 3 C2.01 2.67 1.02 2.34 0 2 C0 1.34 0 0.68 0 0 Z " fill="#4F7E48" transform="translate(84,96)"/>
<path d="M0 0 C2.83950981 2.92824449 2.98724329 4.74061349 3.1875 8.8125 C3.0946875 10.3903125 3.0946875 10.3903125 3 12 C3.928125 12.103125 4.85625 12.20625 5.8125 12.3125 C9 13 9 13 10.9375 14.0625 C12.73742868 17.34472289 11.64959885 20.39767912 11 24 C12.093125 24.103125 13.18625 24.20625 14.3125 24.3125 C18 25 18 25 19.9375 26.125 C21.6712306 29.18452459 21.42145216 31.56817525 21 35 C19.375 37.4375 19.375 37.4375 17 39 C13.75 39.25 13.75 39.25 11 39 C11 39.99 11 40.98 11 42 C11.66 42 12.32 42 13 42 C13.3125 44.1875 13.3125 44.1875 13 47 C10.46926627 50.34950052 9.06763347 51.82917864 4.875 52.5 C2 52 2 52 0.125 50.625 C-1 49 -1 49 -1 47 C-1.66 47 -2.32 47 -3 47 C-3.144375 47.804375 -3.28875 48.60875 -3.4375 49.4375 C-4 52 -4 52 -5 53 C-9.38430687 53.46150599 -9.38430687 53.46150599 -11.63781738 51.77233887 C-13.37695393 49.50954439 -13.39077472 48.2287775 -13.41992188 45.39257812 C-13.43583374 44.46151245 -13.45174561 43.53044678 -13.46813965 42.57116699 C-13.46834106 41.56799438 -13.46854248 40.56482178 -13.46875 39.53125 C-13.47636353 38.49939575 -13.48397705 37.4675415 -13.49182129 36.40441895 C-13.5026293 34.22227398 -13.50547257 32.04007725 -13.50097656 29.85791016 C-13.50000363 26.51247338 -13.54163146 23.16932455 -13.5859375 19.82421875 C-13.5911438 17.70573396 -13.59383271 15.58724118 -13.59375 13.46875 C-13.61014526 12.46557739 -13.62654053 11.46240479 -13.64343262 10.42883301 C-13.61769689 7.8538124 -13.55764503 5.51401661 -13 3 C-8.84881538 -0.66970454 -5.29924276 -0.68377326 0 0 Z " fill="#FAFAFB" transform="translate(128,64)"/>
<path d="M0 0 C0.66 0 1.32 0 2 0 C2 1.32 2 2.64 2 4 C2.99 4 3.98 4 5 4 C5 4.66 5 5.32 5 6 C6.98 6.66 8.96 7.32 11 8 C11 7.34 11 6.68 11 6 C13.70879335 4.64560332 16.00933268 4.93498549 19 5 C18.34 6.32 17.68 7.64 17 9 C18.0725 9.12375 19.145 9.2475 20.25 9.375 C23.45844739 9.90974123 25.2398668 10.47716789 28 12 C29.3242287 12.36784131 30.65613912 12.71202981 32 13 C32 14.98 32 16.96 32 19 C31.34 19 30.68 19 30 19 C29.505 20.485 29.505 20.485 29 22 C26.75 22.75 26.75 22.75 24 23 C22.68 21.68 21.36 20.36 20 19 C16.37 20.32 12.74 21.64 9 23 C8.505 22.01 8.505 22.01 8 21 C7.34 20.67 6.68 20.34 6 20 C5.67 19.67 5.34 19.34 5 19 C4.01 19.33 3.02 19.66 2 20 C1.01 20.33 0.02 20.66 -1 21 C-1 20.34 -1 19.68 -1 19 C-2.65 18.67 -4.3 18.34 -6 18 C-6.33 17.01 -6.66 16.02 -7 15 C-7.33 15.99 -7.66 16.98 -8 18 C-8.99 17.67 -9.98 17.34 -11 17 C-11.33 17.66 -11.66 18.32 -12 19 C-12.66 19 -13.32 19 -14 19 C-14 19.66 -14 20.32 -14 21 C-14.99 21 -15.98 21 -17 21 C-17.33 22.32 -17.66 23.64 -18 25 C-18 23.68 -18 22.36 -18 21 C-18.66 21 -19.32 21 -20 21 C-20.33 21.99 -20.66 22.98 -21 24 C-21 23.34 -21 22.68 -21 22 C-21.99 22.33 -22.98 22.66 -24 23 C-24.83425187 19.38709822 -25.10842154 16.07933749 -25.0625 12.375 C-25.05347656 11.43398437 -25.04445313 10.49296875 -25.03515625 9.5234375 C-25.02355469 8.69070312 -25.01195313 7.85796875 -25 7 C-25 6.01 -25 5.02 -25 4 C-24.01 3.34 -23.02 2.68 -22 2 C-22 3.32 -22 4.64 -22 6 C-21.34 6 -20.68 6 -20 6 C-20 5.34 -20 4.68 -20 4 C-18.35 3.34 -16.7 2.68 -15 2 C-15 3.32 -15 4.64 -15 6 C-14.34 6 -13.68 6 -13 6 C-13 5.34 -13 4.68 -13 4 C-11.35 3.34 -9.7 2.68 -8 2 C-8 2.66 -8 3.32 -8 4 C-5.36 4 -2.72 4 0 4 C0 2.68 0 1.36 0 0 Z " fill="#FAFBF8" transform="translate(152,143)"/>
<path d="M0 0 C2.27604049 3.61703471 2.21217207 6.5729706 2.13525391 10.78808594 C2.12579239 11.46166641 2.11633087 12.13524689 2.10658264 12.82923889 C2.07299839 15.04789938 2.02485885 17.2659901 1.9765625 19.484375 C1.95038567 21.02564012 1.92511943 22.56692095 1.90072632 24.10821533 C1.83417025 28.15915861 1.7552572 32.2097703 1.67376709 36.26043701 C1.59275417 40.39615174 1.5234319 44.53206062 1.453125 48.66796875 C1.3135232 56.77888151 1.16086616 64.88948125 1 73 C7.65716038 72.90787565 14.31395093 72.80058984 20.97070312 72.68261719 C23.23659682 72.64426729 25.50255265 72.60942517 27.76855469 72.578125 C31.02040867 72.53260473 34.2718326 72.47458924 37.5234375 72.4140625 C38.54118256 72.40251129 39.55892761 72.39096008 40.60751343 72.37905884 C41.54833771 72.35918915 42.48916199 72.33931946 43.45849609 72.31884766 C44.28900482 72.30552399 45.11951355 72.29220032 45.97518921 72.2784729 C48.22613614 72.17664458 48.22613614 72.17664458 50 70 C50.37322427 66.89243985 50.37322427 66.89243985 50.4140625 63.2421875 C50.43342865 62.57913605 50.4527948 61.91608459 50.4727478 61.23294067 C50.53255954 59.11375823 50.57893388 56.9945215 50.625 54.875 C50.66317845 53.43877831 50.70223011 52.00257955 50.7421875 50.56640625 C50.83826125 47.04448064 50.92228642 43.52238392 51 40 C49.68 40 48.36 40 47 40 C46.34 39.01 45.68 38.02 45 37 C44.05125 37.825 43.1025 38.65 42.125 39.5 C39.25 42 39.25 42 37 42 C37.66 38.04 38.32 34.08 39 30 C41 32 41 32 41 36 C41.66 36 42.32 36 43 36 C43.495 35.01 43.495 35.01 44 34 C47.82750177 34.54678597 49.5778784 36.02967956 52 39 C52.5300293 41.77734375 52.5300293 41.77734375 52.57421875 44.9375 C52.60193359 46.07960937 52.62964844 47.22171875 52.65820312 48.3984375 C52.66787109 49.58695313 52.67753906 50.77546875 52.6875 52 C52.72963103 54.35423078 52.7750644 56.70840539 52.82421875 59.0625 C52.84101685 60.62677734 52.84101685 60.62677734 52.8581543 62.22265625 C52.98254626 64.65825508 53.36658102 66.6629024 54 69 C53.87890625 71.359375 53.87890625 71.359375 53.5625 73.75 C53.40974609 74.94882813 53.40974609 74.94882813 53.25390625 76.171875 C53.17011719 76.77515625 53.08632812 77.3784375 53 78 C52.0409375 77.7215625 52.0409375 77.7215625 51.0625 77.4375 C50.381875 77.293125 49.70125 77.14875 49 77 C48.67 77.33 48.34 77.66 48 78 C45.28646385 78.24047749 42.59405269 78.42381922 39.875 78.5625 C39.12734375 78.60568359 38.3796875 78.64886719 37.609375 78.69335938 C34.11642681 78.88504556 30.67255489 78.99665872 27.171875 78.9609375 C23.87780595 78.85904919 23.87780595 78.85904919 20.375 80.0625 C16.98878656 81.00311484 15.30753016 81.00228187 12 80 C11.67 79.01 11.34 78.02 11 77 C9.5199159 77.11362262 8.04089926 77.24122908 6.5625 77.375 C5.32693359 77.47941406 5.32693359 77.47941406 4.06640625 77.5859375 C3.04353516 77.79089844 3.04353516 77.79089844 2 78 C1.505 78.99 1.505 78.99 1 80 C-1.70532181 77.41230087 -2.9532873 76.08147524 -3.12025452 72.21591187 C-3.11803391 71.03010529 -3.11581329 69.84429871 -3.11352539 68.62255859 C-3.11367142 67.96877731 -3.11381744 67.31499603 -3.1139679 66.6414032 C-3.11327036 64.47704773 -3.1054854 62.31277796 -3.09765625 60.1484375 C-3.09579151 58.64913988 -3.09436787 57.14984166 -3.09336853 55.65054321 C-3.08954779 51.70168378 -3.07972128 47.75286104 -3.06866455 43.80401611 C-3.05844091 39.77559913 -3.05386887 35.74717622 -3.04882812 31.71875 C-3.03809862 23.81248315 -3.0210275 15.90624614 -3 8 C-5.97 8 -8.94 8 -12 8 C-12.33 7.01 -12.66 6.02 -13 5 C-10.03 4.34 -7.06 3.68 -4 3 C-4 3.66 -4 4.32 -4 5 C-2.29159719 3.36587557 -1.06546953 2.13093906 0 0 Z M54 71 C56 72 56 72 56 72 Z " fill="#F8F9F8" transform="translate(112,62)"/>
<path d="M0 0 C2 3 2 3 2 5 C13.88 5.33 25.76 5.66 38 6 C38 6.33 38 6.66 38 7 C34.37 7.33 30.74 7.66 27 8 C27 9.32 27 10.64 27 12 C28.32 12.33 29.64 12.66 31 13 C31 14.66666667 31 16.33333333 31 18 C30.195625 17.979375 29.39125 17.95875 28.5625 17.9375 C26.06645115 17.70366379 26.06645115 17.70366379 25 19 C22.5 19.125 22.5 19.125 20 19 C19 18 19 18 18.9375 15.4375 C18.958125 14.633125 18.97875 13.82875 19 13 C19.99 12.67 20.98 12.34 22 12 C22 11.01 22 10.02 22 9 C22.66 9 23.32 9 24 9 C24 8.34 24 7.68 24 7 C15.585 7.495 15.585 7.495 7 8 C6.34 9.32 5.68 10.64 5 12 C8.3 12.33 11.6 12.66 15 13 C15 14.98 15 16.96 15 19 C8.58608059 20.13186813 8.58608059 20.13186813 5.5 19.4375 C1.9828726 18.8220027 -0.66152947 19.88717649 -4 21 C-3.34 21.66 -2.68 22.32 -2 23 C-1.34 22.67 -0.68 22.34 0 22 C1.49821059 25.37097383 2 27.20442119 2 31 C-0.375 31.625 -0.375 31.625 -3 32 C-3.66 31.34 -4.32 30.68 -5 30 C-5.33 30.66 -5.66 31.32 -6 32 C-7.66321482 32.35015049 -9.33034549 32.68197057 -11 33 C-11.99 33.66 -12.98 34.32 -14 35 C-16.125 34.75 -16.125 34.75 -18 34 C-18.33 33.34 -18.66 32.68 -19 32 C-20.65 32 -22.3 32 -24 32 C-23.34 31.67 -22.68 31.34 -22 31 C-22.515625 30.608125 -23.03125 30.21625 -23.5625 29.8125 C-24.036875 29.214375 -24.51125 28.61625 -25 28 C-24.6875 25.3125 -24.6875 25.3125 -24 23 C-23.236875 23.04125 -22.47375 23.0825 -21.6875 23.125 C-18.77281584 23.22080824 -18.77281584 23.22080824 -16 21 C-16.66 20.67 -17.32 20.34 -18 20 C-18.32316568 16.44517748 -18.45553291 14.62424881 -16.3125 11.6875 C-13.79205684 9.8482577 -12.03531421 9.49221312 -9 9 C-8.67 8.34 -8.34 7.68 -8 7 C-6.35 7 -4.7 7 -3 7 C-2.690625 6.030625 -2.38125 5.06125 -2.0625 4.0625 C-1 1 -1 1 0 0 Z " fill="#E7F4E8" transform="translate(58,129)"/>
<path d="M0 0 C3.3125 1.5 3.3125 1.5 6 4 C6.63790743 6.04541932 6.99957861 8.06013408 7.375 10.16796875 C7.91679792 12.38705649 7.91679792 12.38705649 11 13.875 C11.99 14.24625 12.98 14.6175 14 15 C16 17 16 17 16.1953125 18.9453125 C16.13020833 20.96354167 16.06510417 22.98177083 16 25 C16.556875 25.103125 17.11375 25.20625 17.6875 25.3125 C22.6612529 26.79118329 22.6612529 26.79118329 25 29 C25.90775116 33.97323498 26.05886843 38.42995371 23.1875 42.6875 C21 44 21 44 18 44 C18.0825 45.051875 18.165 46.10375 18.25 47.1875 C17.95996417 51.61054645 17.13119118 52.95578635 14 56 C10.43293943 58.67529543 6.27838783 58.35931773 2 58 C0.68 57.67 -0.64 57.34 -2 57 C-2 62.61 -2 68.22 -2 74 C-5.63 74 -9.26 74 -13 74 C-13.13911725 65.09002912 -13.24567899 56.18043291 -13.31087303 47.26961231 C-13.34216586 43.13174347 -13.3845988 38.99461846 -13.45263672 34.85717773 C-13.51790609 30.86302591 -13.55372146 26.86958871 -13.56926346 22.87494469 C-13.58033656 21.35223833 -13.60196104 19.82957043 -13.63438034 18.30716896 C-13.87705304 6.43754562 -13.87705304 6.43754562 -11.74737549 2.9468689 C-8.0798818 -0.2996746 -4.7115164 -0.75720799 0 0 Z M-11 6 C-11.77083578 9.47513895 -11.65170223 12.92284228 -11.59375 16.46875 C-11.59379028 17.50060425 -11.59383057 18.5324585 -11.59387207 19.59558105 C-11.58850911 21.77781258 -11.57089347 23.96004312 -11.54199219 26.14208984 C-11.50015941 29.48725236 -11.50091989 32.8304015 -11.5078125 36.17578125 C-11.4973197 38.29428486 -11.48438112 40.41277807 -11.46875 42.53125 C-11.46854858 43.53442261 -11.46834717 44.53759521 -11.46813965 45.57116699 C-11.45222778 46.50223267 -11.43631592 47.43329834 -11.41992188 48.39257812 C-11.40729309 49.62143738 -11.40729309 49.62143738 -11.39440918 50.87512207 C-10.90625623 53.50504419 -10.11622807 54.4048842 -8 56 C-5.45769153 56.41679297 -5.45769153 56.41679297 -3 56 C-2.34 55.34 -1.68 54.68 -1 54 C-1 52.68 -1 51.36 -1 50 C-0.34 50 0.32 50 1 50 C1.309375 50.639375 1.61875 51.27875 1.9375 51.9375 C2.8345163 53.93610821 2.8345163 53.93610821 4 55 C6.83073436 55.50169415 6.83073436 55.50169415 10 55 C12.97958785 52.93714781 12.97958785 52.93714781 15 50 C15.41986946 47.28836222 15.41986946 47.28836222 15 45 C14.34 45 13.68 45 13 45 C13 44.01 13 43.02 13 42 C13.9075 42.0825 14.815 42.165 15.75 42.25 C19.01856518 42.26224847 19.01856518 42.26224847 21.375 40.4375 C23.63913895 37.04129157 23.64269755 34.99900698 23 31 C20.449054 28.15751732 19.0103853 27.08981203 15.1875 26.75 C14.465625 26.8325 13.74375 26.915 13 27 C13.268125 25.7625 13.53625 24.525 13.8125 23.25 C14.15393171 21.07790048 14.15393171 21.07790048 14 19 C11.95118716 16.36073642 11.95118716 16.36073642 9 15 C7.68 15 6.36 15 5 15 C5.061875 13.948125 5.12375 12.89625 5.1875 11.8125 C4.98724329 7.74061349 4.83950981 5.92824449 2 3 C-3.29924276 2.31622674 -6.84881538 2.33029546 -11 6 Z " fill="#64273C" transform="translate(126,61)"/>
<path d="M0 0 C-3.4352048 2.29013653 -4.985331 2.17842973 -9 2 C-9 4.97 -9 7.94 -9 11 C-8.01 11.33 -7.02 11.66 -6 12 C-6.33 12.99 -6.66 13.98 -7 15 C-12.75586417 16.95288249 -17.9669088 17.22530216 -24 17 C-26.76207303 17 -29.30114269 17.42577504 -32 18 C-32.33 18.66 -32.66 19.32 -33 20 C-33.33 19.01 -33.66 18.02 -34 17 C-35.65 16.67 -37.3 16.34 -39 16 C-38.938125 17.27875 -38.87625 18.5575 -38.8125 19.875 C-38.70703125 22.0546875 -38.70703125 22.0546875 -39 24 C-41.61941217 25.74627478 -43.03824877 26.38722388 -46 27 C-46 26.34 -46 25.68 -46 25 C-46.66 24.67 -47.32 24.34 -48 24 C-46.35 23.67 -44.7 23.34 -43 23 C-43.99 20.36 -44.98 17.72 -46 15 C-46.66 15.66 -47.32 16.32 -48 17 C-48.66 15.68 -49.32 14.36 -50 13 C-46.91190305 11.23537317 -45.76687864 11 -42 11 C-41.67 10.34 -41.34 9.68 -41 9 C-41 9.66 -41 10.32 -41 11 C-37.37 11 -33.74 11 -30 11 C-30 9.02 -30 7.04 -30 5 C-31.093125 5.020625 -32.18625 5.04125 -33.3125 5.0625 C-37 5 -37 5 -40 4 C-39.34 2.35 -38.68 0.7 -38 -1 C-32.39 -1 -26.78 -1 -21 -1 C-21 -0.34 -21 0.32 -21 1 C-21.66 1 -22.32 1 -23 1 C-23 1.99 -23 2.98 -23 4 C-23.99 4.495 -23.99 4.495 -25 5 C-25 6.65 -25 8.3 -25 10 C-22.525 10.495 -22.525 10.495 -20 11 C-19.67 10.01 -19.34 9.02 -19 8 C-19 8.66 -19 9.32 -19 10 C-16.9600281 8.63676257 -16.9600281 8.63676257 -15 7 C-15 6.34 -15 5.68 -15 5 C-15.99 4.67 -16.98 4.34 -18 4 C-18.75 2 -18.75 2 -19 0 C-14.86594546 -4.13405454 -4.85344298 -1.8335229 0 0 Z " fill="#F4FBF5" transform="translate(103,137)"/>
<path d="M0 0 C0.78375 0.185625 1.5675 0.37125 2.375 0.5625 C4.97089775 1.25962266 4.97089775 1.25962266 7 0 C7 0.66 7 1.32 7 2 C7.928125 1.814375 8.85625 1.62875 9.8125 1.4375 C13 1 13 1 16 2 C16 3.98 16 5.96 16 8 C16.66 8 17.32 8 18 8 C18 8.66 18 9.32 18 10 C13.05 10.33 8.1 10.66 3 11 C3 11.66 3 12.32 3 13 C0.83125748 12.49396008 -0.99967627 12.00016187 -3 11 C-3 10.34 -3 9.68 -3 9 C-3.99 9 -4.98 9 -6 9 C-6 7.68 -6 6.36 -6 5 C-6.66 5 -7.32 5 -8 5 C-8 6.32 -8 7.64 -8 9 C-12.33333333 9 -16.66666667 9 -21 9 C-21 9.66 -21 10.32 -21 11 C-21.66 11 -22.32 11 -23 11 C-23.33 10.01 -23.66 9.02 -24 8 C-25.32 8.33 -26.64 8.66 -28 9 C-28 9.66 -28 10.32 -28 11 C-28.66 11 -29.32 11 -30 11 C-30.33 10.01 -30.66 9.02 -31 8 C-31.515625 8.309375 -32.03125 8.61875 -32.5625 8.9375 C-36.51973897 10.66245032 -40.32302413 11.64499072 -44.4375 10.0625 C-44.953125 9.711875 -45.46875 9.36125 -46 9 C-46 6.69 -46 4.38 -46 2 C-41.545 1.505 -41.545 1.505 -37 1 C-36.67 1.66 -36.34 2.32 -36 3 C-32.31613292 4.05253345 -30.21307982 4.06087995 -26.5 3 C-22.80603272 1.94458078 -20.68511994 2.10119026 -17 3 C-16.67 2.34 -16.34 1.68 -16 1 C-16 1.66 -16 2.32 -16 3 C-15.46890625 2.83628906 -14.9378125 2.67257813 -14.390625 2.50390625 C-11.46123236 1.88643623 -8.74177064 1.90498075 -5.75 1.9375 C-4.13351563 1.95103516 -4.13351563 1.95103516 -2.484375 1.96484375 C-1.66453125 1.97644531 -0.8446875 1.98804688 0 2 C0 1.34 0 0.68 0 0 Z " fill="#DCF4DC" transform="translate(160,138)"/>
<path d="M0 0 C2.27604049 3.61703471 2.21217207 6.5729706 2.13525391 10.78808594 C2.12579239 11.46166641 2.11633087 12.13524689 2.10658264 12.82923889 C2.07299839 15.04789938 2.02485885 17.2659901 1.9765625 19.484375 C1.95038567 21.02564012 1.92511943 22.56692095 1.90072632 24.10821533 C1.83417025 28.15915861 1.7552572 32.2097703 1.67376709 36.26043701 C1.59275417 40.39615174 1.5234319 44.53206062 1.453125 48.66796875 C1.3135232 56.77888151 1.16086616 64.88948125 1 73 C-0.32 73 -1.64 73 -3 73 C-3 51.55 -3 30.1 -3 8 C-5.97 8 -8.94 8 -12 8 C-12.33 7.01 -12.66 6.02 -13 5 C-10.03 4.34 -7.06 3.68 -4 3 C-4 3.66 -4 4.32 -4 5 C-2.29159719 3.36587557 -1.06546953 2.13093906 0 0 Z " fill="#D9C6CC" transform="translate(112,62)"/>
<path d="M0 0 C0.66 0 1.32 0 2 0 C2 1.32 2 2.64 2 4 C2.66 4.33 3.32 4.66 4 5 C3.1028125 5.37125 3.1028125 5.37125 2.1875 5.75 C-0.1060121 6.83781234 -0.1060121 6.83781234 -1.25 8.9375 C-3.82397342 11.97111153 -7.13172598 13.20555601 -11 14 C-13.25390625 13.57421875 -13.25390625 13.57421875 -15 13 C-15.33 14.32 -15.66 15.64 -16 17 C-14.68 17.66 -13.36 18.32 -12 19 C-12.66 19 -13.32 19 -14 19 C-14 19.66 -14 20.32 -14 21 C-14.99 21 -15.98 21 -17 21 C-17.33 22.32 -17.66 23.64 -18 25 C-18 23.68 -18 22.36 -18 21 C-18.66 21 -19.32 21 -20 21 C-20.33 21.99 -20.66 22.98 -21 24 C-21 23.34 -21 22.68 -21 22 C-21.99 22.33 -22.98 22.66 -24 23 C-24.83425187 19.38709822 -25.10842154 16.07933749 -25.0625 12.375 C-25.05347656 11.43398437 -25.04445313 10.49296875 -25.03515625 9.5234375 C-25.02355469 8.69070312 -25.01195313 7.85796875 -25 7 C-25 6.01 -25 5.02 -25 4 C-24.01 3.34 -23.02 2.68 -22 2 C-22 3.32 -22 4.64 -22 6 C-21.34 6 -20.68 6 -20 6 C-20 5.34 -20 4.68 -20 4 C-18.35 3.34 -16.7 2.68 -15 2 C-15 3.32 -15 4.64 -15 6 C-14.34 6 -13.68 6 -13 6 C-13 5.34 -13 4.68 -13 4 C-11.35 3.34 -9.7 2.68 -8 2 C-8 2.66 -8 3.32 -8 4 C-5.36 4 -2.72 4 0 4 C0 2.68 0 1.36 0 0 Z " fill="#EBF7EC" transform="translate(152,143)"/>
<path d="M0 0 C3.3125 1.5 3.3125 1.5 6 4 C6.63790743 6.04541932 6.99957861 8.06013408 7.375 10.16796875 C7.91679792 12.38705649 7.91679792 12.38705649 11 13.875 C11.99 14.24625 12.98 14.6175 14 15 C16 17 16 17 16.1953125 18.9453125 C16.13020833 20.96354167 16.06510417 22.98177083 16 25 C16.556875 25.103125 17.11375 25.20625 17.6875 25.3125 C22.6612529 26.79118329 22.6612529 26.79118329 25 29 C25.90775116 33.97323498 26.05886843 38.42995371 23.1875 42.6875 C21 44 21 44 18 44 C18.0825 45.051875 18.165 46.10375 18.25 47.1875 C17.95996417 51.61054645 17.13119118 52.95578635 14 56 C10.32691965 58.75481027 6.40628062 58.21320713 2 58 C1.34 57.67 0.68 57.34 0 57 C-2.3329866 56.95977609 -4.66706666 56.95679753 -7 57 C-6.38125 56.773125 -5.7625 56.54625 -5.125 56.3125 C-2.38589791 54.62070165 -1.94975528 53.00755839 -1 50 C-0.34 50 0.32 50 1 50 C1.4125 50.66 1.825 51.32 2.25 52 C3.89049468 54.33243484 3.89049468 54.33243484 7 54.3125 C10.04730176 54.10436419 10.04730176 54.10436419 13 53 C13.80212628 51.12612784 13.80212628 51.12612784 14.1875 48.9375 C14.34605469 48.20402344 14.50460938 47.47054687 14.66796875 46.71484375 C14.77753906 46.14894531 14.88710937 45.58304688 15 45 C14.34 45 13.68 45 13 45 C13 44.01 13 43.02 13 42 C15.64 41.67 18.28 41.34 21 41 C22.19334591 37.41996227 22.33543224 34.75684104 22 31 C19.41126058 28.12362287 16.76085859 27.52234147 13 27 C13.0825 25.741875 13.165 24.48375 13.25 23.1875 C13.29682792 19.76609364 13.29682792 19.76609364 11.25 17.0625 C9.15095893 16.07128616 7.24925862 15.52451199 5 15 C4.80083984 13.93458984 4.80083984 13.93458984 4.59765625 12.84765625 C4.42105469 11.92855469 4.24445313 11.00945312 4.0625 10.0625 C3.88847656 9.14597656 3.71445313 8.22945312 3.53515625 7.28515625 C3.22285012 5.04710156 3.22285012 5.04710156 2 4 C-3.98235897 3.58742352 -7.65196824 4.32598412 -13 7 C-10.37928439 0.66660393 -6.73440966 -0.81277358 0 0 Z " fill="#5F3D42" transform="translate(126,61)"/>
<path d="M0 0 C0.33 0 0.66 0 1 0 C1.05789006 3.45826342 1.09355821 6.91640293 1.125 10.375 C1.14175781 11.35984375 1.15851563 12.3446875 1.17578125 13.359375 C1.18544922 14.77089844 1.18544922 14.77089844 1.1953125 16.2109375 C1.21102295 17.51490479 1.21102295 17.51490479 1.22705078 18.84521484 C1 21 1 21 -1 23 C-3.72485728 23.17517747 -6.34659362 23.23149133 -9.0703125 23.1953125 C-9.86654022 23.1924826 -10.66276794 23.18965271 -11.48312378 23.18673706 C-14.03056763 23.1755264 -16.57766211 23.15042062 -19.125 23.125 C-20.85025535 23.11497133 -22.57551619 23.10584528 -24.30078125 23.09765625 C-28.53409762 23.07728418 -32.76665695 23.03813823 -37 23 C-37 17.39 -37 11.78 -37 6 C-36.67 6 -36.34 6 -36 6 C-36 11.28 -36 16.56 -36 22 C-34.02 20.68 -32.04 19.36 -30 18 C-27.53051758 17.56176758 -27.53051758 17.56176758 -25.14453125 17.64453125 C-24.27505859 17.66193359 -23.40558594 17.67933594 -22.50976562 17.69726562 C-21.61966797 17.73529297 -20.72957031 17.77332031 -19.8125 17.8125 C-18.02746018 17.86481353 -16.2422986 17.91316392 -14.45703125 17.95703125 C-13.67303955 17.98772705 -12.88904785 18.01842285 -12.08129883 18.05004883 C-9.80228341 18.09705561 -9.80228341 18.09705561 -7 17 C-5.02 16.67 -3.04 16.34 -1 16 C-0.67 10.72 -0.34 5.44 0 0 Z " fill="#4A7D41" transform="translate(161,112)"/>
<path d="M0 0 C2 2 2 2 2 6 C2.66 6 3.32 6 4 6 C4.33 5.34 4.66 4.68 5 4 C8.82750177 4.54678597 10.5778784 6.02967956 13 9 C13.5300293 11.77734375 13.5300293 11.77734375 13.57421875 14.9375 C13.60193359 16.07960938 13.62964844 17.22171875 13.65820312 18.3984375 C13.66787109 19.58695313 13.67753906 20.77546875 13.6875 22 C13.72963103 24.35423078 13.7750644 26.70840539 13.82421875 29.0625 C13.84101685 30.62677734 13.84101685 30.62677734 13.8581543 32.22265625 C13.98254626 34.65825508 14.36658102 36.6629024 15 39 C14.87890625 41.359375 14.87890625 41.359375 14.5625 43.75 C14.46066406 44.54921875 14.35882813 45.3484375 14.25390625 46.171875 C14.17011719 46.77515625 14.08632812 47.3784375 14 48 C13.0409375 47.7215625 13.0409375 47.7215625 12.0625 47.4375 C11.381875 47.293125 10.70125 47.14875 10 47 C9.67 47.33 9.34 47.66 9 48 C7.00041636 48.04080783 4.99954746 48.04254356 3 48 C3 47.01 3 46.02 3 45 C-17.295 44.505 -17.295 44.505 -38 44 C-38 43.67 -38 43.34 -38 43 C-37.12343246 42.98786972 -37.12343246 42.98786972 -36.22915649 42.97549438 C-30.16231025 42.88962436 -24.09579741 42.79012925 -18.02929688 42.68261719 C-15.76340318 42.64426729 -13.49744735 42.60942517 -11.23144531 42.578125 C-7.97959133 42.53260473 -4.7281674 42.47458924 -1.4765625 42.4140625 C-0.45881744 42.40251129 0.55892761 42.39096008 1.60751343 42.37905884 C2.54833771 42.35918915 3.48916199 42.33931946 4.45849609 42.31884766 C5.28900482 42.30552399 6.11951355 42.29220032 6.97518921 42.2784729 C9.22613614 42.17664458 9.22613614 42.17664458 11 40 C11.37322427 36.89243985 11.37322427 36.89243985 11.4140625 33.2421875 C11.43342865 32.57913605 11.4527948 31.91608459 11.4727478 31.23294067 C11.53255954 29.11375823 11.57893388 26.9945215 11.625 24.875 C11.66317845 23.43877831 11.70223011 22.00257955 11.7421875 20.56640625 C11.83826125 17.04448064 11.92228642 13.52238392 12 10 C10.68 10 9.36 10 8 10 C7.34 9.01 6.68 8.02 6 7 C5.05125 7.825 4.1025 8.65 3.125 9.5 C0.25 12 0.25 12 -2 12 C-1.34 8.04 -0.68 4.08 0 0 Z M15 41 C17 42 17 42 17 42 Z " fill="#E8EBE3" transform="translate(151,92)"/>
<path d="M0 0 C3.96 0 7.92 0 12 0 C12.66 1.98 13.32 3.96 14 6 C14.66 6 15.32 6 16 6 C15.34 8.64 14.68 11.28 14 14 C8.39 13.34 2.78 12.68 -3 12 C-3 9.36 -3 6.72 -3 4 C-1.02 3.67 0.96 3.34 3 3 C2.01 2.01 1.02 1.02 0 0 Z " fill="#E3EDE0" transform="translate(97,135)"/>
<path d="M0 0 C1.65839874 0.37229359 3.32201275 0.7293569 5 1 C5 2.98 5 4.96 5 7 C-1.75 8.125 -1.75 8.125 -4 7 C-7.08100341 6.72428521 -10.16171476 6.55336467 -13.25 6.37890625 C-16 6 -16 6 -18 4 C-18.66 4.66 -19.32 5.32 -20 6 C-20.99 6 -21.98 6 -23 6 C-23 3.36 -23 0.72 -23 -2 C-20.625 -2.125 -20.625 -2.125 -18 -2 C-17.34 -1.34 -16.68 -0.68 -16 0 C-15.030625 -0.556875 -14.06125 -1.11375 -13.0625 -1.6875 C-8.16806985 -3.82198779 -4.68810967 -1.88400669 0 0 Z " fill="#A7CBA8" transform="translate(87,155)"/>
<path d="M0 0 C0 1.65 0 3.3 0 5 C1.65 5 3.3 5 5 5 C5 4.01 5 3.02 5 2 C6.9914056 1.61866701 8.99279077 1.28674418 11 1 C12 2 12 2 12.125 5 C12 8 12 8 11 9 C9.31816052 9.23287008 7.6287584 9.41264166 5.9375 9.5625 C5.01839844 9.64628906 4.09929687 9.73007813 3.15234375 9.81640625 C2.44207031 9.87699219 1.73179687 9.93757812 1 10 C1 10.66 1 11.32 1 12 C0.01 12 -0.98 12 -2 12 C-2 11.34 -2 10.68 -2 10 C-3.65 9.67 -5.3 9.34 -7 9 C-7.33 8.01 -7.66 7.02 -8 6 C-8.33 6.99 -8.66 7.98 -9 9 C-12.27275026 9 -14.846632 8.70074844 -18 8 C-17.67 6.68 -17.34 5.36 -17 4 C-14.50935112 3.31292445 -12.62113708 3 -10 3 C-8.845 2.505 -7.69 2.01 -6.5 1.5 C-3 0 -3 0 0 0 Z " fill="#DCEEE3" transform="translate(153,152)"/>
<path d="M0 0 C1.32 0 2.64 0 4 0 C4 2.64 4 5.28 4 8 C4.6496875 7.01 4.6496875 7.01 5.3125 6 C5.869375 5.34 6.42625 4.68 7 4 C7.99 4 8.98 4 10 4 C10 3.01 10 2.02 10 1 C16.625 0 16.625 0 20 0 C20.05399736 1.45792884 20.09279177 2.91642712 20.125 4.375 C20.14820312 5.18710938 20.17140625 5.99921875 20.1953125 6.8359375 C20 9 20 9 18 11 C16.16015625 11.703125 16.16015625 11.703125 14.0625 12.25 C13.37285156 12.44078125 12.68320313 12.6315625 11.97265625 12.828125 C10 13 10 13 7 11 C6.34 10.67 5.68 10.34 5 10 C5 10.66 5 11.32 5 12 C3.35 11.67 1.7 11.34 0 11 C0 7.37 0 3.74 0 0 Z " fill="#C8E1C9" transform="translate(104,151)"/>
<path d="M0 0 C0.33 0 0.66 0 1 0 C1.33 16.17 1.66 32.34 2 49 C1.67 49 1.34 49 1 49 C1 54.61 1 60.22 1 66 C4.465 65.505 4.465 65.505 8 65 C8 60.71 8 56.42 8 52 C8.66 52 9.32 52 10 52 C10 57.28 10 62.56 10 68 C6.37 68 2.74 68 -1 68 C-1.02312611 59.28155997 -1.04091646 50.56313044 -1.05181217 41.84466648 C-1.05704041 37.79674258 -1.06413699 33.74883959 -1.07543945 29.70092773 C-1.08627043 25.79764029 -1.09227728 21.89437301 -1.09487724 17.9910717 C-1.09673111 16.49866353 -1.100351 15.00625652 -1.10573006 13.51385689 C-1.11294331 11.43051861 -1.11399083 9.34726469 -1.11352539 7.26391602 C-1.115746 6.07588882 -1.11796661 4.88786163 -1.12025452 3.66383362 C-1 1 -1 1 0 0 Z " fill="#512833" transform="translate(114,67)"/>
<path d="M0 0 C2.97 0 5.94 0 9 0 C9 0.99 9 1.98 9 3 C9.680625 2.814375 10.36125 2.62875 11.0625 2.4375 C14.57232191 1.91476057 17.52188063 2.38621423 21 3 C21 4.98 21 6.96 21 9 C16.59913426 9.77662337 13.3373027 9.91311636 9 9 C7.32774271 9.30404678 5.65919896 9.63128912 4 10 C3 9 3 9 2.9375 6.4375 C2.958125 5.633125 2.97875 4.82875 3 4 C2.34 4 1.68 4 1 4 C0.67 5.32 0.34 6.64 0 8 C0 5.36 0 2.72 0 0 Z " fill="#B7D6BA" transform="translate(52,139)"/>
<path d="M0 0 C0.33 0.66 0.66 1.32 1 2 C3.12576782 2.46651207 3.12576782 2.46651207 5.5625 2.625 C6.38878906 2.69976562 7.21507812 2.77453125 8.06640625 2.8515625 C8.70449219 2.90054688 9.34257812 2.94953125 10 3 C9.67 4.32 9.34 5.64 9 7 C10.32 6.01 11.64 5.02 13 4 C12.67 5.32 12.34 6.64 12 8 C11.01 8 10.02 8 9 8 C9 8.66 9 9.32 9 10 C8.34 10 7.68 10 7 10 C6.67 9.01 6.34 8.02 6 7 C5.484375 7.309375 4.96875 7.61875 4.4375 7.9375 C0.48026103 9.66245032 -3.32302413 10.64499072 -7.4375 9.0625 C-7.953125 8.711875 -8.46875 8.36125 -9 8 C-9 5.69 -9 3.38 -9 1 C-5.8035914 -0.06546953 -3.34252724 -0.07427838 0 0 Z " fill="#BFE4C3" transform="translate(123,139)"/>
<path d="M0 0 C0.66 0 1.32 0 2 0 C2.33 0.99 2.66 1.98 3 3 C3.33 2.01 3.66 1.02 4 0 C8.29 0 12.58 0 17 0 C18 3 18 3 18 7 C17.34 7 16.68 7 16 7 C15.67 7.99 15.34 8.98 15 10 C13.35 10.33 11.7 10.66 10 11 C9.649375 10.38125 9.29875 9.7625 8.9375 9.125 C6.31112298 6.24445747 3.73372463 5.84537162 0 5 C0 3.35 0 1.7 0 0 Z " fill="#E5F4E4" transform="translate(166,155)"/>
<path d="M0 0 C0.33 0.99 0.66 1.98 1 3 C1.66 3.33 2.32 3.66 3 4 C3.33 3.67 3.66 3.34 4 3 C4.66 3 5.32 3 6 3 C6.08096803 4.45742463 6.13917774 5.91612807 6.1875 7.375 C6.22230469 8.18710938 6.25710937 8.99921875 6.29296875 9.8359375 C6.19628906 10.55007812 6.09960938 11.26421875 6 12 C3 14 3 14 0.875 13.75 C-1 13 -1 13 -2 11 C-3.65 11 -5.3 11 -7 11 C-6.34 10.67 -5.68 10.34 -5 10 C-5.515625 9.608125 -6.03125 9.21625 -6.5625 8.8125 C-7.036875 8.214375 -7.51125 7.61625 -8 7 C-7.6875 4.3125 -7.6875 4.3125 -7 2 C-6.21625 2.04125 -5.4325 2.0825 -4.625 2.125 C-1.83883881 2.28728734 -1.83883881 2.28728734 0 0 Z " fill="#DDF3DD" transform="translate(41,150)"/>
<path d="M0 0 C5.445 1.98 5.445 1.98 11 4 C11 4.99 11 5.98 11 7 C10.36908447 7.02505615 9.73816895 7.0501123 9.08813477 7.07592773 C6.24603175 7.19154137 3.40428917 7.31442316 0.5625 7.4375 C-0.92733398 7.49647461 -0.92733398 7.49647461 -2.44726562 7.55664062 C-3.39150391 7.59853516 -4.33574219 7.64042969 -5.30859375 7.68359375 C-6.18314209 7.72025146 -7.05769043 7.75690918 -7.95874023 7.79467773 C-9.9927402 7.78181066 -9.9927402 7.78181066 -11 9 C-11.15620555 10.41327947 -11.25056173 11.8335459 -11.31640625 13.25390625 C-11.35830078 14.10791016 -11.40019531 14.96191406 -11.44335938 15.84179688 C-11.48267578 16.73962891 -11.52199219 17.63746094 -11.5625 18.5625 C-11.60568359 19.46419922 -11.64886719 20.36589844 -11.69335938 21.29492188 C-11.79978142 23.52978485 -11.90179988 25.76476308 -12 28 C-12.33 28 -12.66 28 -13 28 C-13.06058594 26.96359375 -13.12117188 25.9271875 -13.18359375 24.859375 C-13.26803371 23.48957127 -13.35267997 22.11978025 -13.4375 20.75 C-13.47681641 20.06808594 -13.51613281 19.38617188 -13.55664062 18.68359375 C-13.72991002 15.93794029 -13.90270275 13.34850106 -14.64453125 10.69140625 C-15 9 -15 9 -13.25 6.1875 C-8.47564428 2.97399134 -4.48001456 4.03068044 1 5 C0.67 3.35 0.34 1.7 0 0 Z " fill="#E5F0E3" transform="translate(71,92)"/>
<path d="M0 0 C2.86724686 0.57344937 3.8614515 0.8614515 6 3 C6.556875 2.484375 7.11375 1.96875 7.6875 1.4375 C10 0 10 0 12.625 0.0625 C15 1 15 1 16.3125 3.0625 C16.6528125 4.0215625 16.6528125 4.0215625 17 5 C15.02 6.32 13.04 7.64 11 9 C11.33 10.32 11.66 11.64 12 13 C8.63602917 12.39929092 6.43285133 11.43285133 4 9 C3.25 5.8125 3.25 5.8125 3 3 C2.01 2.67 1.02 2.34 0 2 C0 1.34 0 0.68 0 0 Z " fill="#67343A" transform="translate(84,96)"/>
<path d="M0 0 C2.64 0 5.28 0 8 0 C8.05399736 1.45792884 8.09279177 2.91642712 8.125 4.375 C8.14820312 5.18710938 8.17140625 5.99921875 8.1953125 6.8359375 C8 9 8 9 6 11 C3.39300408 12.04611938 0.79996978 12.74233407 -2 13 C-4 11.625 -4 11.625 -5 10 C-3.35 10 -1.7 10 0 10 C0 6.7 0 3.4 0 0 Z " fill="#EEFBEC" transform="translate(116,151)"/>
<path d="M0 0 C1.14135995 2.82336408 1.13510542 5.60347836 1.125 8.625 C1.12757813 9.40101563 1.13015625 10.17703125 1.1328125 10.9765625 C1 13 1 13 0 15 C-0.61875 14.814375 -1.2375 14.62875 -1.875 14.4375 C-4.04160178 13.76313824 -4.04160178 13.76313824 -6 15 C-5.67 14.505 -5.34 14.01 -5 13.5 C-3.56363642 9.90909106 -3.87148538 6.85543873 -4 3 C-6.97 3 -9.94 3 -13 3 C-13 2.01 -13 1.02 -13 0 C-11.58800422 -0.39222105 -10.17007236 -0.76311059 -8.75 -1.125 C-7.96109375 -1.33382812 -7.1721875 -1.54265625 -6.359375 -1.7578125 C-3.50250896 -2.05106696 -2.30243727 -1.70135851 0 0 Z " fill="#F8F9F9" transform="translate(127,149)"/>
<path d="M0 0 C0.99 0 1.98 0 3 0 C2.625 1.9375 2.625 1.9375 2 4 C1.01 4.495 1.01 4.495 0 5 C-0.07353866 9.11816502 -0.03273434 12.79704708 0.625 16.875 C1.33626129 21.7661393 0.17579968 26.25793187 -1 31 C-0.34 31 0.32 31 1 31 C1.66 31.99 2.32 32.98 3 34 C6.56769552 34.73606499 6.56769552 34.73606499 10 35 C10 35.33 10 35.66 10 36 C8.56344146 36.08131463 7.1255517 36.13933559 5.6875 36.1875 C4.48673828 36.23970703 4.48673828 36.23970703 3.26171875 36.29296875 C1 36 1 36 -0.73046875 34.67578125 C-4.62544957 29.53440657 -2.90668245 21.99954609 -2.6875 15.9375 C-2.65205078 14.63232422 -2.61660156 13.32714844 -2.58007812 11.98242188 C-2.53689453 10.73912109 -2.49371094 9.49582031 -2.44921875 8.21484375 C-2.41143311 7.07136475 -2.37364746 5.92788574 -2.3347168 4.74975586 C-2 2 -2 2 0 0 Z " fill="#567951" transform="translate(61,99)"/>
<path d="M0 0 C0.99 0.33 1.98 0.66 3 1 C3 2.32 3 3.64 3 5 C4.32 5.33 5.64 5.66 7 6 C7 7.66666667 7 9.33333333 7 11 C6.195625 10.979375 5.39125 10.95875 4.5625 10.9375 C2.06645115 10.70366379 2.06645115 10.70366379 1 12 C-1.5 12.125 -1.5 12.125 -4 12 C-5 11 -5 11 -5.0625 8.4375 C-5.041875 7.633125 -5.02125 6.82875 -5 6 C-4.01 5.67 -3.02 5.34 -2 5 C-2 4.01 -2 3.02 -2 2 C-1.34 2 -0.68 2 0 2 C0 1.34 0 0.68 0 0 Z " fill="#CEECCE" transform="translate(82,136)"/>
<path d="M0 0 C2 2 2 2 2 6 C2.66 6 3.32 6 4 6 C4.33 5.34 4.66 4.68 5 4 C8.8335875 4.54765536 10.6168141 5.97932114 13 9 C13.45410156 12.20800781 13.45410156 12.20800781 13.390625 15.953125 C13.38496521 16.61334656 13.37930542 17.27356812 13.37347412 17.95379639 C13.3511623 20.05328263 13.30098314 22.1510337 13.25 24.25 C13.22992794 25.6770586 13.21167839 27.10414408 13.1953125 28.53125 C13.15131693 32.02139293 13.08232876 35.51052699 13 39 C12.67 39 12.34 39 12 39 C12 29.43 12 19.86 12 10 C10.68 10 9.36 10 8 10 C7.34 9.01 6.68 8.02 6 7 C5.05125 7.825 4.1025 8.65 3.125 9.5 C0.25 12 0.25 12 -2 12 C-1.34 8.04 -0.68 4.08 0 0 Z " fill="#D8DFD3" transform="translate(151,92)"/>
<path d="M0 0 C-0.33 1.32 -0.66 2.64 -1 4 C-6.83799592 5.69832609 -11.93107371 6.25287193 -18 6 C-17.2109375 2.1484375 -17.2109375 2.1484375 -15.3125 0.8125 C-9.92852153 -1.07916811 -5.59853022 -1.00773544 0 0 Z " fill="#FAF9FA" transform="translate(97,148)"/>
<path d="M0 0 C0.66 0.33 1.32 0.66 2 1 C1.67 1.66 1.34 2.32 1 3 C0.34 3 -0.32 3 -1 3 C-1 17.52 -1 32.04 -1 47 C-0.34 47 0.32 47 1 47 C1 47.66 1 48.32 1 49 C2.98 48.505 2.98 48.505 5 48 C5 48.66 5 49.32 5 50 C5.66 50.33 6.32 50.66 7 51 C6 52 6 52 3.625 52.25 C1 52 1 52 -0.64079285 50.77333069 C-2.38444433 48.49842308 -2.37449452 47.22466454 -2.37231445 44.37670898 C-2.37854324 43.44241562 -2.38477203 42.50812225 -2.39118958 41.54551697 C-2.38197983 40.53920731 -2.37277008 39.53289764 -2.36328125 38.49609375 C-2.36377975 37.46186783 -2.36427826 36.42764191 -2.36479187 35.36207581 C-2.36245098 33.1756905 -2.35272159 30.98930252 -2.33618164 28.80297852 C-2.31256815 25.44718473 -2.31562329 22.09218397 -2.32226562 18.73632812 C-2.31668974 16.61457857 -2.30958043 14.49283238 -2.30078125 12.37109375 C-2.30169266 11.36275986 -2.30260406 10.35442596 -2.30354309 9.3155365 C-2.29401108 8.38439529 -2.28447906 7.45325409 -2.2746582 6.49389648 C-2.27005081 5.67243637 -2.26544342 4.85097626 -2.26069641 4.00462341 C-2 2 -2 2 0 0 Z " fill="#E6D0D8" transform="translate(117,65)"/>
<path d="M0 0 C0.99 0 1.98 0 3 0 C3.33 0.66 3.66 1.32 4 2 C4.33 1.34 4.66 0.68 5 0 C5.66 0 6.32 0 7 0 C7 2.97 7 5.94 7 9 C6.34 9 5.68 9 5 9 C5 10.65 5 12.3 5 14 C4.67 13.34 4.34 12.68 4 12 C3.01 12.33 2.02 12.66 1 13 C-0.10228696 8.59085217 -0.07654536 4.51617599 0 0 Z " fill="#DAECD7" transform="translate(127,153)"/>
<path d="M0 0 C0.33 0 0.66 0 1 0 C1 1.65 1 3.3 1 5 C-1.31 6.32 -3.62 7.64 -6 9 C-6 8.34 -6 7.68 -6 7 C-7.093125 7.185625 -8.18625 7.37125 -9.3125 7.5625 C-13 8 -13 8 -16 7 C-16 9.64 -16 12.28 -16 15 C-16.33 15 -16.66 15 -17 15 C-17 11.7 -17 8.4 -17 5 C-15.68 4.67 -14.36 4.34 -13 4 C-13 4.33 -13 4.66 -13 5 C-7.36976862 5.30249349 -7.36976862 5.30249349 -2 4 C-0.71563266 2.0162233 -0.71563266 2.0162233 0 0 Z M-7 9 C-6.67 10.32 -6.34 11.64 -6 13 C-7.65 13 -9.3 13 -11 13 C-11 12.01 -11 11.02 -11 10 C-9.68 9.67 -8.36 9.34 -7 9 Z " fill="#5C754D" transform="translate(142,113)"/>
<path d="M0 0 C0.66 0.33 1.32 0.66 2 1 C1.67 1.66 1.34 2.32 1 3 C2.32 2.67 3.64 2.34 5 2 C5.33 2.66 5.66 3.32 6 4 C6.99 4 7.98 4 9 4 C8.34 5.98 7.68 7.96 7 10 C-0.502457 9.51597052 -0.502457 9.51597052 -2.6875 7.25 C-3.13329713 4.04026066 -1.84702559 2.55742005 0 0 Z " fill="#B2D1AF" transform="translate(104,139)"/>
<path d="M0 0 C0.33 0.99 0.66 1.98 1 3 C0.34 3 -0.32 3 -1 3 C-1 4.32 -1 5.64 -1 7 C-0.34 7.33 0.32 7.66 1 8 C1.33 8.66 1.66 9.32 2 10 C-0.64 10 -3.28 10 -6 10 C-5.67 11.32 -5.34 12.64 -5 14 C-4.34 14 -3.68 14 -3 14 C-2.67 15.98 -2.34 17.96 -2 20 C-3.65 20.33 -5.3 20.66 -7 21 C-7.07347656 19.93458984 -7.07347656 19.93458984 -7.1484375 18.84765625 C-7.26058594 17.46900391 -7.26058594 17.46900391 -7.375 16.0625 C-7.44460937 15.14597656 -7.51421875 14.22945312 -7.5859375 13.28515625 C-7.79089844 12.15400391 -7.79089844 12.15400391 -8 11 C-8.66 10.67 -9.32 10.34 -10 10 C-9.34 9.01 -8.68 8.02 -8 7 C-5.375 6.8125 -5.375 6.8125 -3 7 C-2.690625 6.030625 -2.38125 5.06125 -2.0625 4.0625 C-1 1 -1 1 0 0 Z " fill="#E2EFE3" transform="translate(58,129)"/>
<path d="M0 0 C2.375 -0.125 2.375 -0.125 5 0 C5.66 0.66 6.32 1.32 7 2 C8.32 2 9.64 2 11 2 C11 3.98 11 5.96 11 8 C10.236875 7.835 9.47375 7.67 8.6875 7.5 C5.29547826 6.86892619 3.29456698 6.90181101 0 8 C0 5.36 0 2.72 0 0 Z " fill="#8DB58D" transform="translate(64,153)"/>
<path d="M0 0 C0.33 0 0.66 0 1 0 C1 5.28 1 10.56 1 16 C9.91 16 18.82 16 28 16 C28 15.34 28 14.68 28 14 C30.97 14 33.94 14 37 14 C36.67 14.99 36.34 15.98 36 17 C24.12 17 12.24 17 0 17 C0 11.39 0 5.78 0 0 Z " fill="#4B6B41" transform="translate(124,118)"/>
<path d="M0 0 C0.66 1.32 1.32 2.64 2 4 C1.319375 4.61875 1.319375 4.61875 0.625 5.25 C-1.05950374 7.06408095 -1.99265971 8.75285627 -3 11 C-3.66 11 -4.32 11 -5 11 C-5.66 10.34 -6.32 9.68 -7 9 C-8.32 9 -9.64 9 -11 9 C-11 8.34 -11 7.68 -11 7 C-11.86625 6.814375 -11.86625 6.814375 -12.75 6.625 C-15.02335767 5.99351176 -16.9253529 5.11141809 -19 4 C-17.35 4 -15.7 4 -14 4 C-13.67 3.34 -13.34 2.68 -13 2 C-13 3.32 -13 4.64 -13 6 C-8.77853454 6.35178879 -7.28576572 5.51908705 -4 3 C-3.01 3.33 -2.02 3.66 -1 4 C-0.67 2.68 -0.34 1.36 0 0 Z " fill="#F0FBF1" transform="translate(53,157)"/>
<path d="M0 0 C-3.47035782 2.31357188 -5.90752784 2.48844098 -10 3 C-10.99 3.33 -11.98 3.66 -13 4 C-14.66621616 4.03874921 -16.33394172 4.0450286 -18 4 C-18.5625 2.0625 -18.5625 2.0625 -19 0 C-14.86594546 -4.13405454 -4.85344298 -1.8335229 0 0 Z " fill="#F7FAF7" transform="translate(103,137)"/>
<path d="M0 0 C1.32 0.99 2.64 1.98 4 3 C3.67 5.64 3.34 8.28 3 11 C4.093125 11.103125 5.18625 11.20625 6.3125 11.3125 C10 12 10 12 11.9375 13.125 C13.58420065 16.03094231 13.18462917 18.73821805 13 22 C12.34 21.67 11.68 21.34 11 21 C11.33 19.35 11.66 17.7 12 16 C11.360625 15.87625 10.72125 15.7525 10.0625 15.625 C9.381875 15.41875 8.70125 15.2125 8 15 C7.67 14.34 7.34 13.68 7 13 C4.69 13 2.38 13 0 13 C0 8.71 0 4.42 0 0 Z " fill="#E5D3DB" transform="translate(136,77)"/>
<path d="M0 0 C0.99 0 1.98 0 3 0 C3.28875 0.94875 3.5775 1.8975 3.875 2.875 C4.76825109 6.05211578 4.76825109 6.05211578 7 8 C5.515 10.475 5.515 10.475 4 13 C0.125 11.25 0.125 11.25 -1 9 C-0.91348369 7.45386986 -0.75997364 5.91090613 -0.5625 4.375 C-0.46066406 3.55773437 -0.35882813 2.74046875 -0.25390625 1.8984375 C-0.17011719 1.27195312 -0.08632812 0.64546875 0 0 Z " fill="#623343" transform="translate(77,65)"/>
<path d="M0 0 C1.32 0.33 2.64 0.66 4 1 C4 5.62 4 10.24 4 15 C3.34 15 2.68 15 2 15 C2 15.99 2 16.98 2 18 C1.34 18 0.68 18 0 18 C0 12.06 0 6.12 0 0 Z " fill="#6B2C44" transform="translate(114,115)"/>
<path d="M0 0 C1.65 0.99 3.3 1.98 5 3 C4.67 4.32 4.34 5.64 4 7 C3.67 5.68 3.34 4.36 3 3 C2.34 3 1.68 3 1 3 C1.33 4.65 1.66 6.3 2 8 C3.65 8.33 5.3 8.66 7 9 C3.35883227 12.33773709 -0.28607242 12.97864902 -5 14 C-5 13.34 -5 12.68 -5 12 C-5.66 11.67 -6.32 11.34 -7 11 C-6.67 10.34 -6.34 9.68 -6 9 C-3.4375 8.375 -3.4375 8.375 -1 8 C-1.020625 6.865625 -1.04125 5.73125 -1.0625 4.5625 C-1 1 -1 1 0 0 Z " fill="#E9F6EA" transform="translate(165,152)"/>
<path d="M0 0 C1.47906892 -0.02689216 2.95827483 -0.04634621 4.4375 -0.0625 C5.26121094 -0.07410156 6.08492188 -0.08570313 6.93359375 -0.09765625 C9 0 9 0 10 1 C10 2.65 10 4.3 10 6 C6.7 6 3.4 6 0 6 C0 4.02 0 2.04 0 0 Z " fill="#B5D2AF" transform="translate(93,155)"/>
<path d="M0 0 C1.23556641 0.01740234 1.23556641 0.01740234 2.49609375 0.03515625 C3.32238281 0.04417969 4.14867187 0.05320313 5 0.0625 C5.63808594 0.07410156 6.27617187 0.08570313 6.93359375 0.09765625 C7.31578142 1.75380282 7.64754477 3.42222649 7.93359375 5.09765625 C6.93359375 6.09765625 6.93359375 6.09765625 4.8671875 6.1953125 C4.04347656 6.18371094 3.21976563 6.17210937 2.37109375 6.16015625 C1.54480469 6.15113281 0.71851563 6.14210937 -0.1328125 6.1328125 C-0.77089844 6.12121094 -1.40898437 6.10960937 -2.06640625 6.09765625 C-2.44859392 4.44150968 -2.78035727 2.77308601 -3.06640625 1.09765625 C-2.06640625 0.09765625 -2.06640625 0.09765625 0 0 Z " fill="#BDEBBB" transform="translate(176.06640625,154.90234375)"/>
<path d="M0 0 C0.66 0 1.32 0 2 0 C2.08096803 1.45742463 2.13917774 2.91612807 2.1875 4.375 C2.22230469 5.18710938 2.25710937 5.99921875 2.29296875 6.8359375 C2.19628906 7.55007812 2.09960938 8.26421875 2 9 C-1 11 -1 11 -3.1875 10.625 C-3.785625 10.41875 -4.38375 10.2125 -5 10 C-5.33 7.36 -5.66 4.72 -6 2 C-5.01 2.33 -4.02 2.66 -3 3 C-2.01 2.67 -1.02 2.34 0 2 C0 1.34 0 0.68 0 0 Z " fill="#C0D6BB" transform="translate(45,153)"/>
<path d="M0 0 C2.97 0.33 5.94 0.66 9 1 C8.67 2.32 8.34 3.64 8 5 C9.32 4.01 10.64 3.02 12 2 C11.67 3.32 11.34 4.64 11 6 C10.01 6 9.02 6 8 6 C8 6.66 8 7.32 8 8 C7.34 8 6.68 8 6 8 C5.67 7.01 5.34 6.02 5 5 C3.02 5.99 3.02 5.99 1 7 C0.34 6.34 -0.32 5.68 -1 5 C-0.625 2.375 -0.625 2.375 0 0 Z " fill="#8FBB8D" transform="translate(124,141)"/>
<path d="M0 0 C2.43189168 0.85116209 4.69691285 1.84845643 7 3 C6.34 4.32 5.68 5.64 5 7 C7.97 7.495 7.97 7.495 11 8 C11 8.33 11 8.66 11 9 C9.5629191 9.05422947 8.12524538 9.09289723 6.6875 9.125 C5.88699219 9.14820312 5.08648437 9.17140625 4.26171875 9.1953125 C2 9 2 9 -1 7 C-1.6875 3.875 -1.6875 3.875 -2 1 C-1.34 0.67 -0.68 0.34 0 0 Z " fill="#F0E7EA" transform="translate(82,64)"/>
<path d="M0 0 C2.71332843 2.42261467 2.49104079 5.06655071 2.75 8.5625 C0.11 8.5625 -2.53 8.5625 -5.25 8.5625 C-5.25 6.5825 -5.25 4.6025 -5.25 2.5625 C-5.91 2.2325 -6.57 1.9025 -7.25 1.5625 C-4.58811081 0.23155541 -2.96944939 -0.57739294 0 0 Z " fill="#B9DBB4" transform="translate(80.25,152.4375)"/>
<path d="M0 0 C0.33 1.32 0.66 2.64 1 4 C1.66 4 2.32 4 3 4 C3 3.34 3 2.68 3 2 C4.65 1.34 6.3 0.68 8 0 C8 1.32 8 2.64 8 4 C8.66 4 9.32 4 10 4 C10 3.34 10 2.68 10 2 C11.65 1.34 13.3 0.68 15 0 C15 0.66 15 1.32 15 2 C16.65 2 18.3 2 20 2 C16.72933122 4.18044585 15.74581273 4.09857402 12 4 C11.67 4.33 11.34 4.66 11 5 C8.98405418 5.23427778 6.961526 5.41336124 4.9375 5.5625 C3.83277344 5.64628906 2.72804687 5.73007813 1.58984375 5.81640625 C0.30787109 5.90728516 0.30787109 5.90728516 -1 6 C-1.66 5.01 -2.32 4.02 -3 3 C-2.01 2.01 -1.02 1.02 0 0 Z " fill="#DFF4DC" transform="translate(129,145)"/>
<path d="M0 0 C0 1.98 0 3.96 0 6 C0.66 6 1.32 6 2 6 C2 6.66 2 7.32 2 8 C-0.31 8 -2.62 8 -5 8 C-5 6.35 -5 4.7 -5 3 C-5.66 3 -6.32 3 -7 3 C-7.33 4.32 -7.66 5.64 -8 7 C-9 6 -9 6 -9.0625 3.4375 C-9.041875 2.633125 -9.02125 1.82875 -9 1 C-2.25 0 -2.25 0 0 0 Z " fill="#9EC5A2" transform="translate(176,140)"/>
<path d="M0 0 C0 1.98 0 3.96 0 6 C-6.4 7.23076923 -6.4 7.23076923 -9.4375 6.0625 C-9.953125 5.711875 -10.46875 5.36125 -11 5 C-10.34 4.67 -9.68 4.34 -9 4 C-9.33 3.01 -9.66 2.02 -10 1 C-6.52674819 -0.1577506 -3.63932552 -0.06866652 0 0 Z " fill="#D1ECD6" transform="translate(73,142)"/>
<path d="M0 0 C0.04254356 1.99954746 0.04080783 4.00041636 0 6 C-1 7 -1 7 -3.5625 7.0625 C-4.366875 7.041875 -5.17125 7.02125 -6 7 C-6.33 6.01 -6.66 5.02 -7 4 C-9.01508358 3.26676204 -9.01508358 3.26676204 -11 3 C-9.68 3 -8.36 3 -7 3 C-7 2.01 -7 1.02 -7 0 C-4.3333581 -1.33332095 -2.83319697 -0.67102033 0 0 Z " fill="#9FBFA2" transform="translate(165,154)"/>
<path d="M0 0 C2.00720923 0.28674418 4.0085944 0.61866701 6 1 C6.125 3.875 6.125 3.875 6 7 C5.34 7.66 4.68 8.32 4 9 C0.46428571 8.46428571 0.46428571 8.46428571 -1 7 C-1.125 4 -1.125 4 -1 1 C-0.67 0.67 -0.34 0.34 0 0 Z " fill="#8BAB8A" transform="translate(44,139)"/>
<path d="M0 0 C0.33 0 0.66 0 1 0 C2.04255319 5.21276596 2.04255319 5.21276596 2 8 C0.25 10.5 0.25 10.5 -2 12 C-2.99 12 -3.98 12 -5 12 C-5 14.31 -5 16.62 -5 19 C-5.66 19.33 -6.32 19.66 -7 20 C-7 17.69 -7 15.38 -7 13 C-7.99 13 -8.98 13 -10 13 C-10 12.01 -10 11.02 -10 10 C-7.36 9.67 -4.72 9.34 -2 9 C-1.34 6.03 -0.68 3.06 0 0 Z " fill="#684A4F" transform="translate(149,93)"/>
<path d="M0 0 C2.4375 0.9375 2.4375 0.9375 3.75 3 C4.0903125 3.9590625 4.0903125 3.9590625 4.4375 4.9375 C1.0022952 7.22763653 -0.547831 7.11592973 -4.5625 6.9375 C-5.25 5.125 -5.25 5.125 -5.5625 2.9375 C-3.92093909 0.29276298 -3.12872741 -0.07631042 0 0 Z " fill="#F4E8EC" transform="translate(96.5625,96.0625)"/>
<path d="M0 0 C0.99 0.33 1.98 0.66 3 1 C3.61875 0.835 4.2375 0.67 4.875 0.5 C7.51280286 -0.1206595 9.3981146 0.34952865 12 1 C12 2.32 12 3.64 12 5 C9.625 5.625 9.625 5.625 7 6 C6.34 5.34 5.68 4.68 5 4 C4.67 4.66 4.34 5.32 4 6 C3.34 6 2.68 6 2 6 C1.34 4.02 0.68 2.04 0 0 Z " fill="#96BD96" transform="translate(48,155)"/>
<path d="M0 0 C3.66666667 0 7.33333333 0 11 0 C11 1.65 11 3.3 11 5 C7.66666667 5 4.33333333 5 1 5 C0.67 5.66 0.34 6.32 0 7 C0 4.69 0 2.38 0 0 Z " fill="#89B788" transform="translate(138,142)"/>
<path d="M0 0 C3.63 1.32 7.26 2.64 11 4 C11 4.99 11 5.98 11 7 C4.73 7 -1.54 7 -8 7 C-8 6.67 -8 6.34 -8 6 C-3.545 5.505 -3.545 5.505 1 5 C0.67 3.35 0.34 1.7 0 0 Z " fill="#CFD0C8" transform="translate(71,92)"/>
<path d="M0 0 C0.66 1.32 1.32 2.64 2 4 C-0.28877281 6.28877281 -1.95532166 7.90978598 -5.26171875 8.1953125 C-6.46248047 8.16050781 -6.46248047 8.16050781 -7.6875 8.125 C-8.49574219 8.10695313 -9.30398437 8.08890625 -10.13671875 8.0703125 C-11.05904297 8.03550781 -11.05904297 8.03550781 -12 8 C-12.33 7.01 -12.66 6.02 -13 5 C-10.03 4.34 -7.06 3.68 -4 3 C-4 3.66 -4 4.32 -4 5 C-2.29159719 3.36587557 -1.06546953 2.13093906 0 0 Z " fill="#F8F1F4" transform="translate(112,62)"/>
<path d="M0 0 C1.1446875 0.2475 1.1446875 0.2475 2.3125 0.5 C5.00856207 1.00159294 6.44020291 0.8532657 9 0 C8.34 1.98 7.68 3.96 7 6 C3.72724974 6 1.153368 5.70074844 -2 5 C-1.125 1.125 -1.125 1.125 0 0 Z " fill="#98BB97" transform="translate(137,155)"/>
<path d="M0 0 C1.66611905 -0.042721 3.33382885 -0.04063832 5 0 C6 1 6 1 6.125 4 C6 7 6 7 5 8 C3.33382885 8.04063832 1.66611905 8.042721 0 8 C0 5.36 0 2.72 0 0 Z " fill="#7C9A81" transform="translate(94,139)"/>
<path d="M0 0 C0.33 0.66 0.66 1.32 1 2 C2.65 2 4.3 2 6 2 C3 3.5 3 3.5 0 5 C0 4.34 0 3.68 0 3 C-1.65 3 -3.3 3 -5 3 C-5 5.31 -5 7.62 -5 10 C-5.99 8.68 -6.98 7.36 -8 6 C-8.99 6.33 -9.98 6.66 -11 7 C-11.33 5.35 -11.66 3.7 -12 2 C-7.66726186 1.07155611 -4.33273814 1.07155611 0 2 C0 1.34 0 0.68 0 0 Z " fill="#BEDDBC" transform="translate(143,139)"/>
<path d="M0 0 C0.66 0 1.32 0 2 0 C2 1.32 2 2.64 2 4 C2.556875 4.103125 3.11375 4.20625 3.6875 4.3125 C6.73374066 5.21813912 8.59215901 5.8596969 11 8 C11.43741927 11.04033396 11.28778183 13.94951263 11 17 C10.67 17 10.34 17 10 17 C9.7525 15.906875 9.505 14.81375 9.25 13.6875 C7.95755402 9.87478436 7.48740066 8.79352034 4 7 C1.35065178 6.28566879 1.35065178 6.28566879 -1 6 C-0.67 4.02 -0.34 2.04 0 0 Z " fill="#543540" transform="translate(140,82)"/>
<path d="M0 0 C0 2.64 0 5.28 0 8 C-4.455 8.495 -4.455 8.495 -9 9 C-8.67 8.01 -8.34 7.02 -8 6 C-7.34 5.67 -6.68 5.34 -6 5 C-6 4.01 -6 3.02 -6 2 C-1.125 0 -1.125 0 0 0 Z " fill="#D8F4DC" transform="translate(94,139)"/>
<path d="M0 0 C0.66 0.33 1.32 0.66 2 1 C2 1.66 2 2.32 2 3 C2.66 3 3.32 3 4 3 C4.1875 5.375 4.1875 5.375 4 8 C1.38058783 9.74627478 -0.03824877 10.38722388 -3 11 C-3 10.34 -3 9.68 -3 9 C-3.66 8.67 -4.32 8.34 -5 8 C-3.35 7.67 -1.7 7.34 0 7 C-0.2784375 5.824375 -0.2784375 5.824375 -0.5625 4.625 C-1 2 -1 2 0 0 Z " fill="#E7F5ED" transform="translate(60,153)"/>
<path d="M0 0 C0.66 0 1.32 0 2 0 C2 2.97 2 5.94 2 9 C0.35 9 -1.3 9 -3 9 C-3.33 7.35 -3.66 5.7 -4 4 C-2.68 3.67 -1.36 3.34 0 3 C0 2.01 0 1.02 0 0 Z " fill="#8FBC93" transform="translate(114,152)"/>
<path d="M0 0 C8.57142857 -0.28571429 8.57142857 -0.28571429 12 2 C10.68 2 9.36 2 8 2 C8 3.98 8 5.96 8 8 C8.66 8 9.32 8 10 8 C9.34 9.32 8.68 10.64 8 12 C7.34 12 6.68 12 6 12 C6 9.03 6 6.06 6 3 C3.69 2.67 1.38 2.34 -1 2 C-0.67 1.34 -0.34 0.68 0 0 Z " fill="#E3F7E1" transform="translate(85,153)"/>
<path d="M0 0 C2.64 0 5.28 0 8 0 C8 2.66666667 8 5.33333333 8 8 C7.67 6.68 7.34 5.36 7 4 C6.01 4 5.02 4 4 4 C3.67 5.32 3.34 6.64 3 8 C3 6.68 3 5.36 3 4 C2.34 4 1.68 4 1 4 C0.67 5.32 0.34 6.64 0 8 C0 5.36 0 2.72 0 0 Z " fill="#80AD7C" transform="translate(52,139)"/>
<path d="M0 0 C1.65 0 3.3 0 5 0 C5.33 0.66 5.66 1.32 6 2 C5.01 2.33 4.02 2.66 3 3 C4.98 3.99 6.96 4.98 9 6 C8.67 6.99 8.34 7.98 8 9 C7.236875 8.690625 6.47375 8.38125 5.6875 8.0625 C3.81210323 7.32106407 1.91315348 6.63771783 0 6 C0 4.02 0 2.04 0 0 Z " fill="#E9D9E0" transform="translate(142,80)"/>
<path d="M0 0 C2.25900493 2.25900493 2.34458029 2.94183075 2.6875 6 C2.77386719 6.70125 2.86023438 7.4025 2.94921875 8.125 C3 10 3 10 2 12 C1.38125 11.814375 0.7625 11.62875 0.125 11.4375 C-2.04160178 10.76313824 -2.04160178 10.76313824 -4 12 C-3.690625 11.484375 -3.38125 10.96875 -3.0625 10.4375 C-1.7129419 7.34145494 -1.44037297 4.33425247 -1 1 C-0.67 0.67 -0.34 0.34 0 0 Z " fill="#F3FCF0" transform="translate(125,152)"/>
<path d="M0 0 C4.75 0.875 4.75 0.875 7 2 C6 5 6 5 4 8 C2.68 7.67 1.36 7.34 0 7 C0 4.69 0 2.38 0 0 Z " fill="#BED3C0" transform="translate(185,154)"/>
<path d="M0 0 C0.33 0.66 0.66 1.32 1 2 C2.97888961 2.72693904 4.97954558 3.39816251 7 4 C-2.1 6.45 -2.1 6.45 -5 5 C-4 2 -4 2 -1.9375 0.8125 C-1.298125 0.544375 -0.65875 0.27625 0 0 Z " fill="#FAFAFA" transform="translate(156,147)"/>
<path d="M0 0 C0.66 0 1.32 0 2 0 C2.33 0.66 2.66 1.32 3 2 C3.33 1.34 3.66 0.68 4 0 C4.66 0 5.32 0 6 0 C6 2.64 6 5.28 6 8 C5.34 8 4.68 8 4 8 C3.34 7.01 2.68 6.02 2 5 C1.34 5.66 0.68 6.32 0 7 C0 4.69 0 2.38 0 0 Z " fill="#78A97B" transform="translate(128,153)"/>
<path d="M0 0 C0.33 0 0.66 0 1 0 C1.33 3.3 1.66 6.6 2 10 C2.66 10 3.32 10 4 10 C4.99 11.485 4.99 11.485 6 13 C9.56769552 13.73606499 9.56769552 13.73606499 13 14 C13 14.33 13 14.66 13 15 C11.56344146 15.08131463 10.1255517 15.13933559 8.6875 15.1875 C7.48673828 15.23970703 7.48673828 15.23970703 6.26171875 15.29296875 C4 15 4 15 2.26953125 13.67578125 C-0.01513856 10.6600171 -0.11525592 7.95265872 -0.0625 4.3125 C-0.05347656 3.50425781 -0.04445312 2.69601563 -0.03515625 1.86328125 C-0.02355469 1.24839844 -0.01195312 0.63351563 0 0 Z " fill="#6D886B" transform="translate(58,120)"/>
<path d="M0 0 C2.31 0.66 4.62 1.32 7 2 C6.67 3.32 6.34 4.64 6 6 C4.33388095 6.042721 2.66617115 6.04063832 1 6 C0 5 0 5 -0.0625 2.4375 C-0.041875 1.633125 -0.02125 0.82875 0 0 Z " fill="#FAF6FD" transform="translate(98,148)"/>
<path d="M0 0 C1.65 0.33 3.3 0.66 5 1 C5.33 2.65 5.66 4.3 6 6 C3.36 6 0.72 6 -2 6 C-2.33 4.68 -2.66 3.36 -3 2 C-2.01 2 -1.02 2 0 2 C0 1.34 0 0.68 0 0 Z " fill="#FDF9FA" transform="translate(140,148)"/>
<path d="M0 0 C0 0.99 0 1.98 0 3 C-0.99 3.66 -1.98 4.32 -3 5 C-6 4 -6 4 -9 2 C-9 1.34 -9 0.68 -9 0 C-2.25 -1.125 -2.25 -1.125 0 0 Z " fill="#FCF7FC" transform="translate(77,148)"/>
<path d="M0 0 C2.64 0 5.28 0 8 0 C8 1.98 8 3.96 8 6 C7.67 4.68 7.34 3.36 7 2 C6.34 2 5.68 2 5 2 C5 3.32 5 4.64 5 6 C4.34 6 3.68 6 3 6 C3 4.68 3 3.36 3 2 C2.34 2 1.68 2 1 2 C0.67 3.32 0.34 4.64 0 6 C0 4.02 0 2.04 0 0 Z " fill="#84B386" transform="translate(151,141)"/>
<path d="M0 0 C0 0.66 0 1.32 0 2 C0.99 2.33 1.98 2.66 3 3 C2.39671875 3.12117188 1.7934375 3.24234375 1.171875 3.3671875 C0.37265625 3.53476563 -0.4265625 3.70234375 -1.25 3.875 C-2.43335937 4.11863281 -2.43335937 4.11863281 -3.640625 4.3671875 C-5.96831144 4.99150075 -7.89031952 5.84838542 -10 7 C-7.88268985 1.88316713 -5.59548444 0 0 0 Z " fill="#71505B" transform="translate(123,61)"/>
<path d="M0 0 C1.98 0 3.96 0 6 0 C6 1.98 6 3.96 6 6 C4.33388095 6.042721 2.66617115 6.04063832 1 6 C0 5 0 5 -0.0625 2.4375 C-0.041875 1.633125 -0.02125 0.82875 0 0 Z " fill="#9EBA9E" transform="translate(117,155)"/>
<path d="M0 0 C0 0.66 0 1.32 0 2 C-1.98 2.33 -3.96 2.66 -6 3 C-6 3.99 -6 4.98 -6 6 C-7.65 6 -9.3 6 -11 6 C-11 4.68 -11 3.36 -11 2 C-7.17010894 0.19769832 -4.21878192 -0.19622241 0 0 Z " fill="#E9F9E3" transform="translate(164,151)"/>
<path d="M0 0 C0.33 0 0.66 0 1 0 C1 2.64 1 5.28 1 8 C-0.65 8 -2.3 8 -4 8 C-4 6.35 -4 4.7 -4 3 C-2.68 2.67 -1.36 2.34 0 2 C0 1.34 0 0.68 0 0 Z " fill="#8CB68B" transform="translate(81,139)"/>
<path d="M0 0 C4 3 4 3 4.5 5.375 C4 8 4 8 0 13 C0 8.71 0 4.42 0 0 Z " fill="#EEDFE5" transform="translate(136,77)"/>
<path d="M0 0 C0.33 0 0.66 0 1 0 C1 2.64 1 5.28 1 8 C-0.65 7.67 -2.3 7.34 -4 7 C-3.67 5.35 -3.34 3.7 -3 2 C-2.01 2 -1.02 2 0 2 C0 1.34 0 0.68 0 0 Z " fill="#8BB996" transform="translate(151,153)"/>
<path d="M0 0 C1.65 0 3.3 0 5 0 C4.814375 0.61875 4.62875 1.2375 4.4375 1.875 C3.76313824 4.04160178 3.76313824 4.04160178 5 6 C4.34 6.66 3.68 7.32 3 8 C2.01 8 1.02 8 0 8 C0 5.36 0 2.72 0 0 Z " fill="#9FC69D" transform="translate(64,153)"/>
<path d="M0 0 C2.475 0.495 2.475 0.495 5 1 C5 2.65 5 4.3 5 6 C3.35 6 1.7 6 0 6 C0 4.02 0 2.04 0 0 Z " fill="#8ABE8B" transform="translate(98,155)"/>
<path d="M0 0 C2 2 2 2 2 6 C1.34 6 0.68 6 0 6 C-1.66666667 4.33333333 -3.33333333 2.66666667 -5 1 C-7.16620544 -0.29519995 -7.16620544 -0.29519995 -9 -1 C-5.37815976 -2.34142231 -3.4046087 -1.70230435 0 0 Z " fill="#6F515B" transform="translate(140,76)"/>
<path d="M0 0 C0.66 0 1.32 0 2 0 C2.33 0.99 2.66 1.98 3 3 C3.33 2.01 3.66 1.02 4 0 C4.66 0 5.32 0 6 0 C6 1.98 6 3.96 6 6 C4.33388095 6.042721 2.66617115 6.04063832 1 6 C0 5 0 5 -0.0625 2.4375 C-0.041875 1.633125 -0.02125 0.82875 0 0 Z " fill="#8EC092" transform="translate(166,155)"/>
<path d="M0 0 C2.875 -0.125 2.875 -0.125 6 0 C6.66 0.66 7.32 1.32 8 2 C7.34 2 6.68 2 6 2 C6 3.98 6 5.96 6 8 C5.34 6.68 4.68 5.36 4 4 C2.35 4 0.7 4 -1 4 C-0.67 2.68 -0.34 1.36 0 0 Z " fill="#E0F5E1" transform="translate(179,152)"/>
<path d="M0 0 C0.33 1.65 0.66 3.3 1 5 C2.32 5.33 3.64 5.66 5 6 C5 6.66 5 7.32 5 8 C3.02 8.33 1.04 8.66 -1 9 C-1.33 7.02 -1.66 5.04 -2 3 C-3.32 2.67 -4.64 2.34 -6 2 C-3 0 -3 0 0 0 Z " fill="#CFE5C9" transform="translate(153,152)"/>
<path d="M0 0 C0.66 1.32 1.32 2.64 2 4 C2.66 4 3.32 4 4 4 C4.33 5.98 4.66 7.96 5 10 C3.35 10.33 1.7 10.66 0 11 C-0.19491452 9.54263913 -0.38069358 8.08405407 -0.5625 6.625 C-0.66691406 5.81289062 -0.77132812 5.00078125 -0.87890625 4.1640625 C-1 2 -1 2 0 0 Z " fill="#CBECCA" transform="translate(51,139)"/>
<path d="M0 0 C2.0625 0.4375 2.0625 0.4375 4 1 C3.01 1.495 3.01 1.495 2 2 C2 2.66 2 3.32 2 4 C-2.41062136 5.0257259 -4.92630576 5.03684712 -9 3 C-9 2.67 -9 2.34 -9 2 C-6.94921875 1.77213542 -4.8984375 1.54427083 -2.84765625 1.31640625 C-0.98859771 1.18113386 -0.98859771 1.18113386 0 0 Z " fill="#6C3B4B" transform="translate(94,71)"/>
<path d="M0 0 C0.99 0.66 1.98 1.32 3 2 C2.34 2 1.68 2 1 2 C1.18828772 4.44480079 1.18828772 4.44480079 2 7 C3.96758273 8.36020151 3.96758273 8.36020151 6 9 C0.62694301 10.67357513 0.62694301 10.67357513 -2 11 C-4 9.625 -4 9.625 -5 8 C-3.35 8 -1.7 8 0 8 C0 5.36 0 2.72 0 0 Z " fill="#E2F3E0" transform="translate(116,153)"/>
<path d="M0 0 C2.0625 0.4375 2.0625 0.4375 4 1 C4 2.65 4 4.3 4 6 C2.0625 6.5625 2.0625 6.5625 0 7 C-1 6 -1 6 -1.125 3.5 C-1 1 -1 1 0 0 Z " fill="#8BB98E" transform="translate(115,141)"/>
<path d="M0 0 C1.1875 1.5625 1.1875 1.5625 2 4 C0.625 7.75 0.625 7.75 -1 11 C-2.32 11 -3.64 11 -5 11 C-4.67 10.01 -4.34 9.02 -4 8 C-3.34 8 -2.68 8 -2 8 C-1.34 5.36 -0.68 2.72 0 0 Z " fill="#58373C" transform="translate(141,106)"/>
<path d="M0 0 C2.00720923 0.28674418 4.0085944 0.61866701 6 1 C5.01 1.495 5.01 1.495 4 2 C4 2.66 4 3.32 4 4 C3.01 4 2.02 4 1 4 C0.67 5.65 0.34 7.3 0 9 C-0.33 9 -0.66 9 -1 9 C-1.09765625 2.84765625 -1.09765625 2.84765625 -1 1 C-0.67 0.67 -0.34 0.34 0 0 Z " fill="#6F4151" transform="translate(70,80)"/>
<path d="M0 0 C0.33 1.32 0.66 2.64 1 4 C2.98 4 4.96 4 7 4 C6.67 5.32 6.34 6.64 6 8 C5.01 7.67 4.02 7.34 3 7 C3 6.34 3 5.68 3 5 C2.13375 4.814375 2.13375 4.814375 1.25 4.625 C-1.02335767 3.99351176 -2.9253529 3.11141809 -5 2 C-3.35 2 -1.7 2 0 2 C0 1.34 0 0.68 0 0 Z " fill="#EAF5EA" transform="translate(39,159)"/>
<path d="M0 0 C0.66 0 1.32 0 2 0 C2 1.65 2 3.3 2 5 C2.66 5 3.32 5 4 5 C4.33 4.34 4.66 3.68 5 3 C5 3.66 5 4.32 5 5 C6.32 5.33 7.64 5.66 9 6 C8.34 6 7.68 6 7 6 C7 6.66 7 7.32 7 8 C3.76912579 7.44295272 1.97638863 6.66812465 0 4 C0 2.68 0 1.36 0 0 Z " fill="#E8F8E5" transform="translate(156,143)"/>
<path d="M0 0 C2 1 2 1 2.6875 2.875 C3 5 3 5 2 8 C0.35 7.67 -1.3 7.34 -3 7 C-1.125 2.25 -1.125 2.25 0 0 Z " fill="#7FB281" transform="translate(104,139)"/>
<path d="M0 0 C2.0625 0.4375 2.0625 0.4375 4 1 C4 2.65 4 4.3 4 6 C2.35 6 0.7 6 -1 6 C-1.042721 4.33388095 -1.04063832 2.66617115 -1 1 C-0.67 0.67 -0.34 0.34 0 0 Z " fill="#8BB08B" transform="translate(162,141)"/>
<path d="M0 0 C-0.66 0 -1.32 0 -2 0 C-1.938125 1.423125 -1.938125 1.423125 -1.875 2.875 C-2 6 -2 6 -4 8 C-4.66 7.67 -5.32 7.34 -6 7 C-6 6.34 -6 5.68 -6 5 C-5.34 5 -4.68 5 -4 5 C-4.7763932 1.9254644 -4.7763932 1.9254644 -7 0 C-3.98968256 -0.93423645 -3.13349732 -1.04449911 0 0 Z " fill="#552D36" transform="translate(100,104)"/>
<path d="M0 0 C1.32 0 2.64 0 4 0 C4.103125 0.598125 4.20625 1.19625 4.3125 1.8125 C5.09385053 4.29861534 6.14895416 5.22943442 8 7 C8 7.66 8 8.32 8 9 C7.01 9 6.02 9 5 9 C5 8.01 5 7.02 5 6 C4.34 6 3.68 6 3 6 C2.67 5.01 2.34 4.02 2 3 C1.34 2.67 0.68 2.34 0 2 C0 1.34 0 0.68 0 0 Z " fill="#562C30" transform="translate(80,94)"/>
<path d="M0 0 C1.98 0.495 1.98 0.495 4 1 C4 3.62113708 3.68707555 5.50935112 3 8 C2.01 7.67 1.02 7.34 0 7 C0.66 7 1.32 7 2 7 C1.484375 6.5875 0.96875 6.175 0.4375 5.75 C-0.036875 5.1725 -0.51125 4.595 -1 4 C-0.6875 1.8125 -0.6875 1.8125 0 0 Z " fill="#8CAA8F" transform="translate(34,153)"/>
<path d="M0 0 C1.65 0.99 3.3 1.98 5 3 C4.67 4.32 4.34 5.64 4 7 C3.67 5.68 3.34 4.36 3 3 C2.34 3 1.68 3 1 3 C1.33 4.98 1.66 6.96 2 9 C1.01 8.67 0.02 8.34 -1 8 C-1.04241723 5.66705225 -1.04092937 3.33297433 -1 1 C-0.67 0.67 -0.34 0.34 0 0 Z " fill="#DEF8DF" transform="translate(165,152)"/>
<path d="M0 0 C1.65 0 3.3 0 5 0 C4.67 1.65 4.34 3.3 4 5 C2.35 4.67 0.7 4.34 -1 4 C-0.67 2.68 -0.34 1.36 0 0 Z " fill="#8FAF92" transform="translate(68,142)"/>
<path d="M0 0 C2.0625 0.4375 2.0625 0.4375 4 1 C4 2.66666667 4 4.33333333 4 6 C2.35 6 0.7 6 -1 6 C-1.042721 4.33388095 -1.04063832 2.66617115 -1 1 C-0.67 0.67 -0.34 0.34 0 0 Z " fill="#89B089" transform="translate(85,141)"/>
<path d="M0 0 C2 1.25 2 1.25 4 3 C4 4.32 4 5.64 4 7 C2.68 6.67 1.36 6.34 0 6 C0 5.01 0 4.02 0 3 C-1.65 3 -3.3 3 -5 3 C-5 2.67 -5 2.34 -5 2 C-3.35 2 -1.7 2 0 2 C0 1.34 0 0.68 0 0 Z " fill="#DCF5DC" transform="translate(73,139)"/>
<path d="M0 0 C0.66 0 1.32 0 2 0 C2 0.66 2 1.32 2 2 C3.32 1.67 4.64 1.34 6 1 C6 1.66 6 2.32 6 3 C6.66 3.33 7.32 3.66 8 4 C7 5 7 5 4.5625 5.1875 C2 5 2 5 0 3 C0 2.01 0 1.02 0 0 Z " fill="#EBDFE4" transform="translate(116,112)"/>
<path d="M0 0 C1.1446875 0.3403125 1.1446875 0.3403125 2.3125 0.6875 C1.673125 0.790625 1.03375 0.89375 0.375 1 C-0.6459375 1.3403125 -0.6459375 1.3403125 -1.6875 1.6875 C-2.0175 2.6775 -2.3475 3.6675 -2.6875 4.6875 C-1.3675 5.3475 -0.0475 6.0075 1.3125 6.6875 C-0.6675 6.6875 -2.6475 6.6875 -4.6875 6.6875 C-5.375 4.875 -5.375 4.875 -5.6875 2.6875 C-3.97309355 -0.07459928 -3.26180423 -0.37927956 0 0 Z " fill="#E1D5D8" transform="translate(96.6875,96.3125)"/>
<path d="M0 0 C4.29659053 0.85931811 5.53620742 2.30431114 8 6 C7.67 6.66 7.34 7.32 7 8 C6.01 7.67 5.02 7.34 4 7 C3.66666667 5.66666667 3.33333333 4.33333333 3 3 C2.01 2.67 1.02 2.34 0 2 C0 1.34 0 0.68 0 0 Z " fill="#783447" transform="translate(84,96)"/>
<path d="M0 0 C-0.99 0.495 -0.99 0.495 -2 1 C-2 1.66 -2 2.32 -2 3 C-2.99 3 -3.98 3 -5 3 C-5.33 4.32 -5.66 5.64 -6 7 C-6 5.68 -6 4.36 -6 3 C-6.66 3 -7.32 3 -8 3 C-8 2.34 -8 1.68 -8 1 C-5.29120665 -0.35439668 -2.99066732 -0.06501451 0 0 Z " fill="#EFF7EE" transform="translate(140,161)"/>
<path d="M0 0 C1.32 0 2.64 0 4 0 C4 0.99 4 1.98 4 3 C3.01 3 2.02 3 1 3 C1 3.66 1 4.32 1 5 C1.99 5.33 2.98 5.66 4 6 C2.35 5.67 0.7 5.34 -1 5 C-0.67 3.35 -0.34 1.7 0 0 Z " fill="#85AA7F" transform="translate(174,155)"/>
<path d="M0 0 C0.33 0.66 0.66 1.32 1 2 C2.65 2 4.3 2 6 2 C2.67847386 4.21435076 1.80722039 4.09285903 -2 4 C-3.34332728 4.29044914 -4.68225804 4.60955794 -6 5 C-5.34 4.67 -4.68 4.34 -4 4 C-4 3.34 -4 2.68 -4 2 C-2.68 1.34 -1.36 0.68 0 0 Z " fill="#D6ECD8" transform="translate(143,145)"/>
<path d="M0 0 C2.01822917 0.06510417 4.03645833 0.13020833 6.0546875 0.1953125 C3.72254602 1.40159258 1.55826611 2.3607863 -0.9453125 3.1953125 C-0.6153125 4.1853125 -0.2853125 5.1753125 0.0546875 6.1953125 C-0.9353125 6.1953125 -1.9253125 6.1953125 -2.9453125 6.1953125 C-3.5703125 4.3203125 -3.5703125 4.3203125 -3.9453125 2.1953125 C-1.9453125 0.1953125 -1.9453125 0.1953125 0 0 Z " fill="#EDE8EA" transform="translate(121.9453125,63.8046875)"/>
<path d="M0 0 C2.97 0 5.94 0 9 0 C8.34 1.65 7.68 3.3 7 5 C6.34 5 5.68 5 5 5 C4.67 4.01 4.34 3.02 4 2 C2.68 1.34 1.36 0.68 0 0 Z " fill="#E1F3E6" transform="translate(71,161)"/>
<path d="M0 0 C0.99 0.33 1.98 0.66 3 1 C3.66 0.67 4.32 0.34 5 0 C4.47731534 2.76276177 3.89130413 5.3260876 3 8 C2.34 8 1.68 8 1 8 C0.67 5.36 0.34 2.72 0 0 Z " fill="#7FAA7F" transform="translate(39,155)"/>
<path d="M0 0 C1.98 0 3.96 0 6 0 C6 0.66 6 1.32 6 2 C4.02 2.99 4.02 2.99 2 4 C2 5.32 2 6.64 2 8 C1.34 8 0.68 8 0 8 C0 5.36 0 2.72 0 0 Z " fill="#D6F4D8" transform="translate(134,153)"/>
<path d="M0 0 C0.28875 0.639375 0.5775 1.27875 0.875 1.9375 C1.82823451 4.15206079 1.82823451 4.15206079 4 5 C3.34 5 2.68 5 2 5 C1.67 5.66 1.34 6.32 1 7 C0.67 6.01 0.34 5.02 0 4 C-1.32 4.33 -2.64 4.66 -4 5 C-3.67 4.01 -3.34 3.02 -3 2 C-2.34 2 -1.68 2 -1 2 C-0.67 1.34 -0.34 0.68 0 0 Z " fill="#DDF4DA" transform="translate(109,137)"/>
<path d="M0 0 C3.26954202 0.56371414 4.82575883 1.49962266 7 4 C4.36 4 1.72 4 -1 4 C-0.67 2.68 -0.34 1.36 0 0 Z " fill="#4F2B38" transform="translate(97,131)"/>
<path d="M0 0 C0.66 0.66 1.32 1.32 2 2 C1.625 5.125 1.625 5.125 1 8 C-2 8 -2 8 -4 7 C-3.525625 6.5875 -3.05125 6.175 -2.5625 5.75 C-0.83733482 3.817815 -0.43415125 2.51807725 0 0 Z " fill="#E5F3E3" transform="translate(164,127)"/>
<path d="M0 0 C0.99 0.66 1.98 1.32 3 2 C2.67 2.66 2.34 3.32 2 4 C0.35 4 -1.3 4 -3 4 C-3.33 5.32 -3.66 6.64 -4 8 C-4 6.02 -4 4.04 -4 2 C-2.68 1.34 -1.36 0.68 0 0 Z " fill="#5A6F4F" transform="translate(148,103)"/>
<path d="M0 0 C1.65 0.33 3.3 0.66 5 1 C4.3125 2.9375 4.3125 2.9375 3 5 C0.375 5.75 0.375 5.75 -2 6 C-1.34 4.02 -0.68 2.04 0 0 Z " fill="#5C2739" transform="translate(83,73)"/>
<path d="M0 0 C0.99 0.33 1.98 0.66 3 1 C4.32 1 5.64 1 7 1 C6.01 1.495 6.01 1.495 5 2 C4.34786708 4.02463255 4.34786708 4.02463255 4 6 C3.34 6 2.68 6 2 6 C1.34 4.02 0.68 2.04 0 0 Z " fill="#83B386" transform="translate(48,155)"/>
<path d="M0 0 C2.3431213 0.25561323 4.67843403 0.59270772 7 1 C7.33 1.66 7.66 2.32 8 3 C4.71303767 3.79953138 3.28976808 4.09658936 0 3 C0 2.01 0 1.02 0 0 Z " fill="#EDFAF2" transform="translate(169,152)"/>
<path d="M0 0 C-0.33 0.99 -0.66 1.98 -1 3 C-2.32 3 -3.64 3 -5 3 C-5.33 3.66 -5.66 4.32 -6 5 C-6.99 5 -7.98 5 -9 5 C-9 4.01 -9 3.02 -9 2 C-3.375 0 -3.375 0 0 0 Z " fill="#467A42" transform="translate(81,99)"/>
<path d="M0 0 C-1.125 1.5 -1.125 1.5 -3 3 C-6.1875 3.1875 -6.1875 3.1875 -9 3 C-8.01 2.67 -7.02 2.34 -6 2 C-6 1.34 -6 0.68 -6 0 C-3.50907189 -1.24546405 -2.58919267 -0.7767578 0 0 Z " fill="#F7E2EB" transform="translate(148,100)"/>
<path d="M0 0 C0.33 0 0.66 0 1 0 C1.66 2.31 2.32 4.62 3 7 C1.35 7 -0.3 7 -2 7 C-1.125 1.125 -1.125 1.125 0 0 Z " fill="#DBF1D9" transform="translate(113,142)"/>
<path d="M0 0 C1.98 0.66 3.96 1.32 6 2 C6 2.66 6 3.32 6 4 C3.03 4 0.06 4 -3 4 C-2.01 3.34 -1.02 2.68 0 2 C0 1.34 0 0.68 0 0 Z " fill="#F6DCE6" transform="translate(79,78)"/>
<path d="M0 0 C1.65 1.32 3.3 2.64 5 4 C3.02 4.66 1.04 5.32 -1 6 C-1.66 5.34 -2.32 4.68 -3 4 C-2.34 3.67 -1.68 3.34 -1 3 C-0.34 3.33 0.32 3.66 1 4 C0.67 2.68 0.34 1.36 0 0 Z " fill="#EDEAEB" transform="translate(73,75)"/>
<path d="M0 0 C1.32 0.33 2.64 0.66 4 1 C3.67 2.65 3.34 4.3 3 6 C2.01 5.67 1.02 5.34 0 5 C0 3.33333333 0 1.66666667 0 0 Z " fill="#84B287" transform="translate(180,155)"/>
<path d="M0 0 C0.99 0 1.98 0 3 0 C3 1.65 3 3.3 3 5 C1.68 4.67 0.36 4.34 -1 4 C-0.67 2.68 -0.34 1.36 0 0 Z " fill="#DAF4D9" transform="translate(45,141)"/>
<path d="M0 0 C1.32 0.33 2.64 0.66 4 1 C3.67 2.32 3.34 3.64 3 5 C2.01 5 1.02 5 0 5 C0 3.35 0 1.7 0 0 Z " fill="#CEEBD0" transform="translate(95,141)"/>
<path d="M0 0 C0.99 0 1.98 0 3 0 C2.67 1.32 2.34 2.64 2 4 C0.68 4.33 -0.64 4.66 -2 5 C-1.125 1.125 -1.125 1.125 0 0 Z " fill="#6C8F69" transform="translate(61,99)"/>
<path d="M0 0 C1.65 0 3.3 0 5 0 C5 0.33 5 0.66 5 1 C6.65 1.33 8.3 1.66 10 2 C10 2.33 10 2.66 10 3 C7.03 3 4.06 3 1 3 C0.67 2.01 0.34 1.02 0 0 Z " fill="#DDCED3" transform="translate(99,67)"/>
</svg>
