<?xml version="1.0" encoding="UTF-8" standalone="no"?>
<!-- Created with Inkscape (http://www.inkscape.org/) -->

<svg
   xmlns:dc="http://purl.org/dc/elements/1.1/"
   xmlns:cc="http://creativecommons.org/ns#"
   xmlns:rdf="http://www.w3.org/1999/02/22-rdf-syntax-ns#"
   xmlns:svg="http://www.w3.org/2000/svg"
   xmlns="http://www.w3.org/2000/svg"
   xmlns:sodipodi="http://sodipodi.sourceforge.net/DTD/sodipodi-0.dtd"
   xmlns:inkscape="http://www.inkscape.org/namespaces/inkscape"
   width="440.51889"
   height="119.96079"
   id="svg2"
   version="1.1"
   inkscape:version="0.47 r22583"
   sodipodi:docname="STEG.svg">
  <defs
     id="defs4">
    <inkscape:path-effect
       effect="skeletal"
       id="path-effect2894"
       is_visible="true"
       pattern="M 0,0 0,10 10,5 z"
       copytype="single_stretched"
       prop_scale="1"
       scale_y_rel="false"
       spacing="0"
       normal_offset="0"
       tang_offset="0"
       prop_units="false"
       vertical_pattern="false"
       fuse_tolerance="0" />
    <inkscape:path-effect
       effect="spiro"
       id="path-effect2892"
       is_visible="true" />
    <inkscape:perspective
       sodipodi:type="inkscape:persp3d"
       inkscape:vp_x="0 : 526.18109 : 1"
       inkscape:vp_y="0 : 1000 : 0"
       inkscape:vp_z="744.09448 : 526.18109 : 1"
       inkscape:persp3d-origin="372.04724 : 350.78739 : 1"
       id="perspective10" />
    <inkscape:perspective
       id="perspective2884"
       inkscape:persp3d-origin="0.5 : 0.33333333 : 1"
       inkscape:vp_z="1 : 0.5 : 1"
       inkscape:vp_y="0 : 1000 : 0"
       inkscape:vp_x="0 : 0.5 : 1"
       sodipodi:type="inkscape:persp3d" />
  </defs>
  <sodipodi:namedview
     id="base"
     pagecolor="#ffffff"
     bordercolor="#666666"
     borderopacity="1.0"
     inkscape:pageopacity="0.0"
     inkscape:pageshadow="2"
     inkscape:zoom="0.49497475"
     inkscape:cx="145.91354"
     inkscape:cy="-21.941169"
     inkscape:document-units="px"
     inkscape:current-layer="layer1"
     showgrid="false"
     inkscape:window-width="1024"
     inkscape:window-height="693"
     inkscape:window-x="0"
     inkscape:window-y="24"
     inkscape:window-maximized="1" />
  <metadata
     id="metadata7">
    <rdf:RDF>
      <cc:Work
         rdf:about="">
        <dc:format>image/svg+xml</dc:format>
        <dc:type
           rdf:resource="http://purl.org/dc/dcmitype/StillImage" />
        <dc:title></dc:title>
      </cc:Work>
    </rdf:RDF>
  </metadata>
  <g
     inkscape:label="Calque 1"
     inkscape:groupmode="layer"
     id="layer1"
     transform="translate(-46.374086,-355.63496)">
    <path
       style="fill:#1170b0;fill-opacity:1;stroke:none"
       d="m 279.59531,445.81172 c 8.62456,-4.73641 13.02957,5.50004 13.3639,12.40935 -0.57274,10.69113 -7.82744,17.18218 -21.76407,17.37309 -13.93666,0.19094 -34.55526,-16.80034 -34.17344,-44.2918 0.38183,-27.49148 18.90039,-52.50108 39.7099,-69.87416 20.80951,-17.37308 -5.72738,9.35473 -9.73655,14.7003 -4.00918,5.34556 -20.14059,23.14804 -17.75491,51.92833 1.71821,20.7281 19.46637,26.74536 22.1459,26.72782 7.30242,-0.0476 10.48414,-2.1452 10.54793,-4.58192 0.0675,-2.53493 -0.90682,-2.67278 -2.33866,-4.391 l 0,-1e-5 z"
       id="path2896"
       sodipodi:nodetypes="ccssssssscc" />
    <path
       style="fill:#eb3124;fill-opacity:1;stroke:none"
       d="m 284.18736,441.30312 c -11.06677,0.25918 -12.07283,-6.21938 -11.82131,-10.10649 0.25154,-3.8871 7.04248,-9.32906 7.54551,-11.4022 0.50306,-2.07314 -0.12573,-4.27582 -0.12573,-4.27582 0,0 4.40153,0.77743 6.16216,3.4984 1.76062,2.72098 2.13786,6.73763 -0.12573,8.81077 -2.26365,2.07314 -4.65305,3.49842 -4.65305,6.2194 0,2.72097 1.25757,7.12636 3.01819,7.25594 z"
       id="path2898" />
    <path
       id="path2902"
       d="m 281.00453,416.23602 c -10.5465,-3.36335 -9.38521,-9.81589 -7.88003,-13.40857 1.50522,-3.59265 9.69942,-6.523 10.85089,-8.31883 1.15153,-1.7958 1.27531,-4.08313 1.27531,-4.08313 0,0 3.90749,2.17007 4.68474,5.3164 0.77721,3.14634 -0.17576,7.0665 -2.99165,8.28829 -2.81592,1.22177 -5.53946,1.79007 -6.42665,4.36236 -0.88718,2.57226 -1.13474,7.14695 0.48743,7.8435 z"
       style="fill:#eb3124;fill-opacity:1;stroke:none" />
    <path
       style="fill:#eb3124;fill-opacity:1;stroke:none"
       d="m 286.53936,391.39679 c -10.5465,-3.36333 -9.3852,-9.81588 -7.88002,-13.40857 1.50523,-3.59264 9.69941,-6.523 10.8509,-8.31884 1.15151,-1.79577 1.2753,-4.08313 1.2753,-4.08313 0,0 3.9075,2.17009 4.68474,5.31642 0.7772,3.14634 -0.17576,7.0665 -2.99165,8.28827 -2.81592,1.22179 -5.53947,1.79009 -6.42666,4.36237 -0.88717,2.57227 -1.13473,7.14695 0.48744,7.8435 z"
       id="path2904" />
    <g
       id="g2935"
       transform="matrix(2.1382251,0,0,2.1382251,-474.31998,-404.79265)">
      <g
         transform="scale(0.79050798,1.2650094)"
         style="font-size:49.4017067px;font-style:normal;font-variant:normal;font-weight:normal;font-stretch:normal;fill:#1170b0;fill-opacity:1;stroke:none;font-family:Serif;-inkscape-font-specification:Serif"
         id="text2906">
        <path
           d="m 313.58614,297.44269 0,1.52454 c -0.39562,-0.1769 -0.78157,-0.31037 -1.15788,-0.40044 -0.37631,-0.0901 -0.73171,-0.13507 -1.06621,-0.13508 -0.44385,10e-6 -0.77192,0.0611 -0.98419,0.18333 -0.21228,0.12223 -0.31842,0.31199 -0.31842,0.56929 0,0.19298 0.0708,0.34415 0.21228,0.4535 0.14473,0.10614 0.40525,0.19781 0.78157,0.27499 l 0.79121,0.15921 c 0.80086,0.16082 1.37015,0.40526 1.70787,0.73332 0.3377,0.32807 0.50656,0.79443 0.50657,1.3991 -1e-5,0.79443 -0.23641,1.38623 -0.7092,1.77541 -0.46959,0.38596 -1.18844,0.57893 -2.15654,0.57893 -0.45672,0 -0.91505,-0.0434 -1.37498,-0.13026 -0.45993,-0.0868 -0.91987,-0.21549 -1.3798,-0.38595 l 0,-1.56796 c 0.45993,0.24444 0.90378,0.42938 1.33156,0.55482 0.43098,0.12222 0.84588,0.18333 1.24471,0.18333 0.40525,0 0.71563,-0.0675 0.93112,-0.20263 0.21549,-0.13509 0.32324,-0.32807 0.32324,-0.57894 0,-0.22514 -0.074,-0.39882 -0.22192,-0.52104 -0.14474,-0.12222 -0.43582,-0.23158 -0.87323,-0.32807 l -0.71885,-0.15921 c -0.72046,-0.15438 -1.24793,-0.40042 -1.58243,-0.73814 -0.33128,-0.33771 -0.49692,-0.79282 -0.49692,-1.36533 0,-0.71723 0.23158,-1.26883 0.69473,-1.65479 0.46314,-0.38595 1.12892,-0.57893 1.99733,-0.57894 0.3956,10e-6 0.80247,0.0306 1.22059,0.0917 0.41812,0.0579 0.85071,0.14634 1.29779,0.26534"
           style="font-size:9.8805275px;font-weight:bold;fill:#1170b0;font-family:DejaVu Sans;-inkscape-font-specification:DejaVu Sans Bold"
           id="path3023" />
        <path
           d="m 318.18869,300.12028 c -0.38275,0 -0.67543,0.1383 -0.87806,0.4149 -0.19941,0.27339 -0.29912,0.669 -0.29912,1.18682 0,0.51783 0.0997,0.91505 0.29912,1.19165 0.20263,0.27339 0.49531,0.41008 0.87806,0.41008 0.3763,0 0.66416,-0.13669 0.86358,-0.41008 0.19941,-0.2766 0.29911,-0.67382 0.29912,-1.19165 -10e-6,-0.51782 -0.0997,-0.91343 -0.29912,-1.18682 -0.19942,-0.2766 -0.48728,-0.4149 -0.86358,-0.4149 m 0,-1.23507 c 0.92951,1e-5 1.65479,0.25088 2.17584,0.75262 0.52425,0.50175 0.78638,1.19647 0.78639,2.08417 -10e-6,0.88771 -0.26214,1.58243 -0.78639,2.08418 -0.52105,0.50174 -1.24633,0.75261 -2.17584,0.75261 -0.93274,0 -1.66284,-0.25087 -2.19032,-0.75261 -0.52426,-0.50175 -0.78639,-1.19647 -0.78639,-2.08418 0,-0.8877 0.26213,-1.58242 0.78639,-2.08417 0.52748,-0.50174 1.25758,-0.75261 2.19032,-0.75262"
           style="font-size:9.8805275px;font-weight:bold;fill:#1170b0;font-family:DejaVu Sans;-inkscape-font-specification:DejaVu Sans Bold"
           id="path3025" />
        <path
           d="m 326.77625,299.18433 0,1.40874 c -0.23479,-0.16081 -0.47119,-0.27981 -0.70919,-0.35701 -0.2348,-0.0772 -0.47924,-0.11578 -0.73332,-0.11578 -0.48245,0 -0.85876,0.14152 -1.12893,0.42455 -0.26696,0.27982 -0.40043,0.67221 -0.40043,1.17717 0,0.50497 0.13347,0.89896 0.40043,1.182 0.27017,0.27982 0.64648,0.41973 1.12893,0.41973 0.27016,0 0.52586,-0.0402 0.76709,-0.12061 0.24443,-0.0804 0.46958,-0.19941 0.67542,-0.35702 l 0,1.41358 c -0.27017,0.0997 -0.54517,0.17368 -0.82498,0.22192 -0.27661,0.0515 -0.55482,0.0772 -0.83464,0.0772 -0.97454,0 -1.73681,-0.24926 -2.2868,-0.74779 -0.54999,-0.50174 -0.82498,-1.19808 -0.82498,-2.089 0,-0.89091 0.27499,-1.58564 0.82498,-2.08417 0.54999,-0.50174 1.31226,-0.75261 2.2868,-0.75262 0.28304,1e-5 0.56125,0.0257 0.83464,0.0772 0.2766,0.0482 0.55159,0.12223 0.82498,0.22193"
           style="font-size:9.8805275px;font-weight:bold;fill:#1170b0;font-family:DejaVu Sans;-inkscape-font-specification:DejaVu Sans Bold"
           id="path3027" />
        <path
           d="m 328.27667,299.01547 1.72716,0 0,5.40341 -1.72716,0 0,-5.40341 m 0,-2.10347 1.72716,0 0,1.40875 -1.72716,0 0,-1.40875"
           style="font-size:9.8805275px;font-weight:bold;fill:#1170b0;font-family:DejaVu Sans;-inkscape-font-specification:DejaVu Sans Bold"
           id="path3029" />
        <path
           d="m 337.06686,301.7027 0,0.4921 -4.03808,0 c 0.0418,0.40526 0.18815,0.7092 0.43902,0.91183 0.25087,0.20263 0.60145,0.30394 1.05174,0.30394 0.36344,0 0.73492,-0.0531 1.11445,-0.15921 0.38274,-0.10935 0.77513,-0.27338 1.17718,-0.4921 l 0,1.33156 c -0.40848,0.15438 -0.81695,0.27017 -1.22542,0.34736 -0.40848,0.0804 -0.81695,0.12061 -1.22542,0.12061 -0.97776,0 -1.73842,-0.24765 -2.28198,-0.74297 -0.54034,-0.49852 -0.81051,-1.19646 -0.81051,-2.09382 0,-0.88127 0.26535,-1.57438 0.79604,-2.07935 0.53391,-0.50495 1.26723,-0.75743 2.19996,-0.75744 0.84911,1e-5 1.52775,0.2557 2.03593,0.76709 0.51139,0.5114 0.76709,1.19487 0.76709,2.0504 m -1.7754,-0.57411 c -10e-6,-0.32806 -0.0965,-0.5918 -0.28947,-0.79121 -0.18977,-0.20263 -0.43903,-0.30394 -0.7478,-0.30394 -0.3345,0 -0.60628,0.0949 -0.81533,0.28464 -0.20907,0.18655 -0.33933,0.45672 -0.39079,0.81051 l 2.24339,0 m -0.27982,-4.6122 1.36532,0 -1.78023,1.81401 -0.9456,0 1.36051,-1.81401"
           style="font-size:9.8805275px;font-weight:bold;fill:#1170b0;font-family:DejaVu Sans;-inkscape-font-specification:DejaVu Sans Bold"
           id="path3031" />
        <path
           d="m 340.25584,297.48129 0,1.53418 1.78023,0 0,1.23507 -1.78023,0 0,2.29162 c 0,0.25088 0.0499,0.42134 0.14956,0.5114 0.0997,0.0868 0.29751,0.13026 0.59341,0.13026 l 0.8877,0 0,1.23506 -1.48111,0 c -0.68186,0 -1.16592,-0.14151 -1.45217,-0.42455 -0.28303,-0.28625 -0.42455,-0.77031 -0.42455,-1.45217 l 0,-2.29162 -0.85876,0 0,-1.23507 0.85876,0 0,-1.53418 1.72716,0"
           style="font-size:9.8805275px;font-weight:bold;fill:#1170b0;font-family:DejaVu Sans;-inkscape-font-specification:DejaVu Sans Bold"
           id="path3033" />
        <path
           d="m 348.49122,301.7027 0,0.4921 -4.03809,0 c 0.0418,0.40526 0.18816,0.7092 0.43903,0.91183 0.25087,0.20263 0.60145,0.30394 1.05174,0.30394 0.36344,0 0.73492,-0.0531 1.11445,-0.15921 0.38274,-0.10935 0.77513,-0.27338 1.17717,-0.4921 l 0,1.33156 c -0.40847,0.15438 -0.81695,0.27017 -1.22541,0.34736 -0.40848,0.0804 -0.81695,0.12061 -1.22542,0.12061 -0.97776,0 -1.73842,-0.24765 -2.28198,-0.74297 -0.54034,-0.49852 -0.81051,-1.19646 -0.81051,-2.09382 0,-0.88127 0.26535,-1.57438 0.79604,-2.07935 0.53391,-0.50495 1.26723,-0.75743 2.19996,-0.75744 0.8491,1e-5 1.52775,0.2557 2.03593,0.76709 0.51139,0.5114 0.76709,1.19487 0.76709,2.0504 m -1.77541,-0.57411 c 0,-0.32806 -0.0965,-0.5918 -0.28946,-0.79121 -0.18977,-0.20263 -0.43904,-0.30394 -0.7478,-0.30394 -0.3345,0 -0.60628,0.0949 -0.81533,0.28464 -0.20907,0.18655 -0.33933,0.45672 -0.39079,0.81051 l 2.24338,0 m -0.27982,-4.6122 1.36533,0 -1.78023,1.81401 -0.9456,0 1.3605,-1.81401"
           style="font-size:9.8805275px;font-weight:bold;fill:#1170b0;font-family:DejaVu Sans;-inkscape-font-specification:DejaVu Sans Bold"
           id="path3035" />
        <path
           d="m 352.44729,297.21594 6.63848,0 0,1.40392 -2.38811,0 0,5.79902 -1.85743,0 0,-5.79902 -2.39294,0 0,-1.40392"
           style="font-size:9.8805275px;font-weight:bold;fill:#1170b0;font-family:DejaVu Sans;-inkscape-font-specification:DejaVu Sans Bold"
           id="path3037" />
        <path
           d="m 358.82525,302.31541 0,-3.29994 1.73681,0 0,0.54034 c 0,0.29269 -0.002,0.66096 -0.005,1.10481 -0.003,0.44064 -0.005,0.73493 -0.005,0.88288 0,0.4342 0.0113,0.74779 0.0338,0.94077 0.0225,0.18976 0.0611,0.32807 0.11579,0.4149 0.0708,0.11258 0.16242,0.19942 0.275,0.26053 0.11578,0.0611 0.24765,0.0917 0.3956,0.0917 0.36023,0 0.64326,-0.1383 0.84911,-0.4149 0.20584,-0.27661 0.30876,-0.66095 0.30877,-1.15305 l 0,-2.66794 1.72716,0 0,5.40341 -1.72716,0 0,-0.78156 c -0.26053,0.3152 -0.53713,0.54838 -0.82981,0.69955 -0.28947,0.14795 -0.6095,0.22192 -0.96007,0.22192 -0.62397,0 -1.09999,-0.19137 -1.42805,-0.57411 -0.32485,-0.38274 -0.48727,-0.93916 -0.48727,-1.66927"
           style="font-size:9.8805275px;font-weight:bold;fill:#1170b0;font-family:DejaVu Sans;-inkscape-font-specification:DejaVu Sans Bold"
           id="path3039" />
        <path
           d="m 371.35924,301.12859 0,3.29029 -1.73681,0 0,-0.53551 0,-1.98286 c -1e-5,-0.46637 -0.0113,-0.788 -0.0338,-0.9649 -0.0193,-0.17689 -0.0547,-0.30715 -0.10614,-0.39078 -0.0676,-0.11257 -0.15921,-0.19941 -0.275,-0.26052 -0.11579,-0.0643 -0.24766,-0.0965 -0.3956,-0.0965 -0.36024,0 -0.64327,0.13991 -0.84911,0.41973 -0.20585,0.2766 -0.30877,0.66095 -0.30877,1.15305 l 0,2.65828 -1.72716,0 0,-5.40341 1.72716,0 0,0.79121 c 0.26052,-0.31519 0.53712,-0.54676 0.82981,-0.69472 0.29268,-0.15116 0.61592,-0.22674 0.96972,-0.22675 0.62396,1e-5 1.09676,0.19138 1.4184,0.57411 0.32484,0.38275 0.48726,0.93917 0.48727,1.66927"
           style="font-size:9.8805275px;font-weight:bold;fill:#1170b0;font-family:DejaVu Sans;-inkscape-font-specification:DejaVu Sans Bold"
           id="path3041" />
        <path
           d="m 372.97062,299.01547 1.72716,0 0,5.40341 -1.72716,0 0,-5.40341 m 0,-2.10347 1.72716,0 0,1.40875 -1.72716,0 0,-1.40875"
           style="font-size:9.8805275px;font-weight:bold;fill:#1170b0;font-family:DejaVu Sans;-inkscape-font-specification:DejaVu Sans Bold"
           id="path3043" />
        <path
           d="m 380.58847,299.18433 0,1.31226 c -0.36989,-0.15438 -0.7269,-0.27017 -1.07104,-0.34737 -0.34415,-0.0772 -0.669,-0.11578 -0.97454,-0.11578 -0.32807,0 -0.57251,0.0418 -0.73332,0.12543 -0.1576,0.0804 -0.2364,0.20585 -0.2364,0.37631 0,0.13831 0.0595,0.24444 0.1785,0.31842 0.12222,0.074 0.33932,0.12865 0.65131,0.16403 l 0.30394,0.0434 c 0.88448,0.11257 1.4795,0.29751 1.78506,0.55481 0.30554,0.25731 0.45832,0.66096 0.45832,1.21095 0,0.57572 -0.21228,1.00831 -0.63683,1.29778 -0.42456,0.28947 -1.05817,0.4342 -1.90084,0.4342 -0.35702,0 -0.72689,-0.0289 -1.10963,-0.0868 -0.37953,-0.0547 -0.77031,-0.1383 -1.17235,-0.25087 l 0,-1.31226 c 0.34414,0.16725 0.69633,0.29269 1.05656,0.37631 0.36344,0.0836 0.73171,0.12544 1.10481,0.12544 0.33771,0 0.59179,-0.0466 0.76226,-0.13991 0.17046,-0.0933 0.2557,-0.23157 0.2557,-0.41491 0,-0.15438 -0.0595,-0.26856 -0.17851,-0.34253 -0.11579,-0.0772 -0.34897,-0.1367 -0.69955,-0.17851 l -0.30394,-0.0386 c -0.7687,-0.0965 -1.30743,-0.27499 -1.6162,-0.53551 -0.30876,-0.26052 -0.46315,-0.65613 -0.46315,-1.18682 0,-0.5725 0.1962,-0.99706 0.58859,-1.27367 0.39239,-0.27659 0.99384,-0.41489 1.80435,-0.4149 0.31842,1e-5 0.65291,0.0241 1.00349,0.0724 0.35058,0.0482 0.73171,0.12383 1.14341,0.22675"
           style="font-size:9.8805275px;font-weight:bold;fill:#1170b0;font-family:DejaVu Sans;-inkscape-font-specification:DejaVu Sans Bold"
           id="path3045" />
        <path
           d="m 382.25291,299.01547 1.72716,0 0,5.40341 -1.72716,0 0,-5.40341 m 0,-2.10347 1.72716,0 0,1.40875 -1.72716,0 0,-1.40875"
           style="font-size:9.8805275px;font-weight:bold;fill:#1170b0;font-family:DejaVu Sans;-inkscape-font-specification:DejaVu Sans Bold"
           id="path3047" />
        <path
           d="m 391.0431,301.7027 0,0.4921 -4.03809,0 c 0.0418,0.40526 0.18816,0.7092 0.43903,0.91183 0.25087,0.20263 0.60145,0.30394 1.05174,0.30394 0.36344,0 0.73492,-0.0531 1.11445,-0.15921 0.38274,-0.10935 0.77513,-0.27338 1.17717,-0.4921 l 0,1.33156 c -0.40847,0.15438 -0.81695,0.27017 -1.22541,0.34736 -0.40848,0.0804 -0.81695,0.12061 -1.22542,0.12061 -0.97776,0 -1.73842,-0.24765 -2.28198,-0.74297 -0.54034,-0.49852 -0.81051,-1.19646 -0.81051,-2.09382 0,-0.88127 0.26535,-1.57438 0.79604,-2.07935 0.53391,-0.50495 1.26723,-0.75743 2.19996,-0.75744 0.8491,1e-5 1.52775,0.2557 2.03593,0.76709 0.51139,0.5114 0.76708,1.19487 0.76709,2.0504 m -1.77541,-0.57411 c 0,-0.32806 -0.0965,-0.5918 -0.28946,-0.79121 -0.18977,-0.20263 -0.43904,-0.30394 -0.7478,-0.30394 -0.3345,0 -0.60628,0.0949 -0.81534,0.28464 -0.20906,0.18655 -0.33932,0.45672 -0.39078,0.81051 l 2.24338,0"
           style="font-size:9.8805275px;font-weight:bold;fill:#1170b0;font-family:DejaVu Sans;-inkscape-font-specification:DejaVu Sans Bold"
           id="path3049" />
        <path
           d="m 397.77807,301.12859 0,3.29029 -1.73681,0 0,-0.53551 0,-1.98286 c -1e-5,-0.46637 -0.0113,-0.788 -0.0338,-0.9649 -0.0193,-0.17689 -0.0547,-0.30715 -0.10614,-0.39078 -0.0675,-0.11257 -0.15921,-0.19941 -0.275,-0.26052 -0.11579,-0.0643 -0.24766,-0.0965 -0.3956,-0.0965 -0.36023,0 -0.64327,0.13991 -0.84911,0.41973 -0.20585,0.2766 -0.30877,0.66095 -0.30877,1.15305 l 0,2.65828 -1.72716,0 0,-5.40341 1.72716,0 0,0.79121 c 0.26052,-0.31519 0.53712,-0.54676 0.82981,-0.69472 0.29268,-0.15116 0.61592,-0.22674 0.96972,-0.22675 0.62396,1e-5 1.09676,0.19138 1.4184,0.57411 0.32484,0.38275 0.48726,0.93917 0.48727,1.66927"
           style="font-size:9.8805275px;font-weight:bold;fill:#1170b0;font-family:DejaVu Sans;-inkscape-font-specification:DejaVu Sans Bold"
           id="path3051" />
        <path
           d="m 404.82181,301.12859 0,3.29029 -1.73681,0 0,-0.53551 0,-1.98286 c -10e-6,-0.46637 -0.0113,-0.788 -0.0338,-0.9649 -0.0193,-0.17689 -0.0547,-0.30715 -0.10614,-0.39078 -0.0675,-0.11257 -0.15921,-0.19941 -0.275,-0.26052 -0.11579,-0.0643 -0.24766,-0.0965 -0.3956,-0.0965 -0.36024,0 -0.64327,0.13991 -0.84911,0.41973 -0.20585,0.2766 -0.30877,0.66095 -0.30877,1.15305 l 0,2.65828 -1.72716,0 0,-5.40341 1.72716,0 0,0.79121 c 0.26052,-0.31519 0.53712,-0.54676 0.82981,-0.69472 0.29268,-0.15116 0.61592,-0.22674 0.96972,-0.22675 0.62396,1e-5 1.09676,0.19138 1.4184,0.57411 0.32484,0.38275 0.48726,0.93917 0.48727,1.66927"
           style="font-size:9.8805275px;font-weight:bold;fill:#1170b0;font-family:DejaVu Sans;-inkscape-font-specification:DejaVu Sans Bold"
           id="path3053" />
        <path
           d="m 411.82695,301.7027 0,0.4921 -4.03809,0 c 0.0418,0.40526 0.18815,0.7092 0.43903,0.91183 0.25087,0.20263 0.60144,0.30394 1.05173,0.30394 0.36344,0 0.73493,-0.0531 1.11446,-0.15921 0.38273,-0.10935 0.77512,-0.27338 1.17717,-0.4921 l 0,1.33156 c -0.40848,0.15438 -0.81695,0.27017 -1.22542,0.34736 -0.40848,0.0804 -0.81695,0.12061 -1.22542,0.12061 -0.97776,0 -1.73842,-0.24765 -2.28197,-0.74297 -0.54035,-0.49852 -0.81052,-1.19646 -0.81052,-2.09382 0,-0.88127 0.26535,-1.57438 0.79604,-2.07935 0.53391,-0.50495 1.26723,-0.75743 2.19996,-0.75744 0.84911,1e-5 1.52775,0.2557 2.03593,0.76709 0.51139,0.5114 0.76709,1.19487 0.7671,2.0504 m -1.77541,-0.57411 c -10e-6,-0.32806 -0.0965,-0.5918 -0.28947,-0.79121 -0.18977,-0.20263 -0.43903,-0.30394 -0.74779,-0.30394 -0.3345,0 -0.60628,0.0949 -0.81534,0.28464 -0.20906,0.18655 -0.33932,0.45672 -0.39078,0.81051 l 2.24338,0"
           style="font-size:9.8805275px;font-weight:bold;fill:#1170b0;font-family:DejaVu Sans;-inkscape-font-specification:DejaVu Sans Bold"
           id="path3055" />
      </g>
      <g
         transform="scale(0.68951722,1.4502901)"
         style="font-size:32.92775345px;font-style:normal;font-variant:normal;font-weight:normal;font-stretch:normal;fill:#1170b0;fill-opacity:1;stroke:none;font-family:Serif;-inkscape-font-specification:Serif"
         id="text2914">
        <path
           d="m 356.72996,270.11575 0,-2.53663 1.52198,0 0,6.57832 -1.52198,0 0,-0.68489 c -0.20857,0.27903 -0.43827,0.48337 -0.68911,0.61302 -0.25085,0.12965 -0.54115,0.19447 -0.87091,0.19447 -0.58343,0 -1.06257,-0.23111 -1.43742,-0.69334 -0.37486,-0.46505 -0.56229,-1.06256 -0.56229,-1.79255 0,-0.72998 0.18743,-1.32609 0.56229,-1.78832 0.37485,-0.46505 0.85399,-0.69757 1.43742,-0.69757 0.32694,0 0.61583,0.0662 0.86668,0.1987 0.25366,0.12965 0.48477,0.33258 0.69334,0.60879 m -0.99774,3.06509 c 0.32412,0 0.57074,-0.11838 0.73985,-0.35513 0.17193,-0.23675 0.25789,-0.5806 0.25789,-1.03156 0,-0.45095 -0.086,-0.79481 -0.25789,-1.03156 -0.16911,-0.23675 -0.41573,-0.35513 -0.73985,-0.35513 -0.32131,0 -0.56792,0.11838 -0.73985,0.35513 -0.16911,0.23675 -0.25366,0.58061 -0.25366,1.03156 0,0.45096 0.0845,0.79481 0.25366,1.03156 0.17193,0.23675 0.41854,0.35513 0.73985,0.35513"
           style="font-size:8.6583519px;font-weight:bold;fill:#1170b0;font-family:DejaVu Sans;-inkscape-font-specification:DejaVu Sans Bold"
           id="path3058" />
        <path
           d="m 364.44131,271.77724 0,0.43123 -3.5386,0 c 0.0366,0.35512 0.16488,0.62147 0.38472,0.79903 0.21984,0.17757 0.52706,0.26635 0.92165,0.26635 0.31848,0 0.64401,-0.0465 0.9766,-0.13952 0.33539,-0.0958 0.67924,-0.23956 1.03156,-0.43122 l 0,1.16685 c -0.35795,0.13528 -0.7159,0.23675 -1.07384,0.30439 -0.35795,0.0705 -0.7159,0.10569 -1.07384,0.10569 -0.85682,0 -1.52339,-0.21702 -1.99971,-0.65106 -0.4735,-0.43687 -0.71025,-1.04847 -0.71025,-1.83483 0,-0.77226 0.23252,-1.37964 0.69757,-1.82214 0.46787,-0.4425 1.11048,-0.66375 1.92784,-0.66375 0.74407,0 1.33877,0.22407 1.78409,0.6722 0.44813,0.44814 0.6722,1.04707 0.67221,1.79678 m -1.5558,-0.5031 c 0,-0.28748 -0.0846,-0.51859 -0.25366,-0.69334 -0.1663,-0.17756 -0.38473,-0.26635 -0.6553,-0.26635 -0.29312,0 -0.53128,0.0831 -0.71448,0.24944 -0.1832,0.16347 -0.29735,0.40022 -0.34245,0.71025 l 1.96589,0"
           style="font-size:8.6583519px;font-weight:bold;fill:#1170b0;font-family:DejaVu Sans;-inkscape-font-specification:DejaVu Sans Bold"
           id="path3060" />
        <path
           d="m 368.59292,267.57912 1.51352,0 0,6.57832 -1.51352,0 0,-6.57832"
           style="font-size:8.6583519px;font-weight:bold;fill:#1170b0;font-family:DejaVu Sans;-inkscape-font-specification:DejaVu Sans Bold"
           id="path3062" />
        <path
           d="m 372.66843,267.84547 0,2.34638 -1.00196,0 0,-2.34638 1.00196,0"
           style="font-size:8.6583519px;font-weight:bold;fill:#1170b0;font-family:DejaVu Sans;-inkscape-font-specification:DejaVu Sans Bold"
           id="path3064" />
        <path
           d="m 374.29187,267.84547 4.39259,0 0,1.23026 -2.76492,0 0,1.17531 2.60004,0 0,1.23026 -2.60004,0 0,1.44588 2.85793,0 0,1.23026 -4.4856,0 0,-6.31197 m 2.34638,-1.71645 1.19644,0 -1.20489,1.11611 -0.82863,0 0.83708,-1.11611"
           style="font-size:8.6583519px;font-weight:bold;fill:#1170b0;font-family:DejaVu Sans;-inkscape-font-specification:DejaVu Sans Bold"
           id="path3066" />
        <path
           d="m 380.14303,267.57912 1.51352,0 0,6.57832 -1.51352,0 0,-6.57832"
           style="font-size:8.6583519px;font-weight:bold;fill:#1170b0;font-family:DejaVu Sans;-inkscape-font-specification:DejaVu Sans Bold"
           id="path3068" />
        <path
           d="m 387.84591,271.77724 0,0.43123 -3.53859,0 c 0.0366,0.35512 0.16488,0.62147 0.38472,0.79903 0.21984,0.17757 0.52705,0.26635 0.92164,0.26635 0.31849,0 0.64402,-0.0465 0.9766,-0.13952 0.3354,-0.0958 0.67925,-0.23956 1.03156,-0.43122 l 0,1.16685 c -0.35795,0.13528 -0.71589,0.23675 -1.07383,0.30439 -0.35795,0.0705 -0.7159,0.10569 -1.07384,0.10569 -0.85682,0 -1.52339,-0.21702 -1.99971,-0.65106 -0.4735,-0.43687 -0.71026,-1.04847 -0.71026,-1.83483 0,-0.77226 0.23253,-1.37964 0.69758,-1.82214 0.46786,-0.4425 1.11047,-0.66375 1.92783,-0.66375 0.74408,0 1.33877,0.22407 1.7841,0.6722 0.44813,0.44814 0.6722,1.04707 0.6722,1.79678 m -1.55579,-0.5031 c -10e-6,-0.28748 -0.0846,-0.51859 -0.25367,-0.69334 -0.16629,-0.17756 -0.38472,-0.26635 -0.65529,-0.26635 -0.29313,0 -0.53129,0.0831 -0.71449,0.24944 -0.1832,0.16347 -0.29735,0.40022 -0.34244,0.71025 l 1.96589,0"
           style="font-size:8.6583519px;font-weight:bold;fill:#1170b0;font-family:DejaVu Sans;-inkscape-font-specification:DejaVu Sans Bold"
           id="path3070" />
        <path
           d="m 392.81348,269.57037 0,1.2345 c -0.20576,-0.14092 -0.41291,-0.24521 -0.62148,-0.31286 -0.20575,-0.0676 -0.41995,-0.10146 -0.64261,-0.10146 -0.42277,0 -0.75253,0.12402 -0.98928,0.37204 -0.23394,0.24521 -0.35091,0.58906 -0.3509,1.03156 -10e-6,0.4425 0.11696,0.78776 0.3509,1.03579 0.23675,0.24521 0.56651,0.36781 0.98928,0.36781 0.23675,0 0.46082,-0.0352 0.67221,-0.10569 0.2142,-0.0705 0.41149,-0.17475 0.59188,-0.31285 l 0,1.23872 c -0.23676,0.0874 -0.47774,0.15219 -0.72294,0.19447 -0.2424,0.0451 -0.48619,0.0676 -0.7314,0.0676 -0.854,0 -1.52197,-0.21843 -2.00393,-0.65529 -0.48196,-0.43968 -0.72294,-1.04988 -0.72294,-1.8306 0,-0.78071 0.24098,-1.3895 0.72294,-1.82637 0.48196,-0.43968 1.14993,-0.65952 2.00393,-0.65952 0.24803,0 0.49182,0.0225 0.7314,0.0676 0.24238,0.0423 0.48336,0.10711 0.72294,0.19447"
           style="font-size:8.6583519px;font-weight:bold;fill:#1170b0;font-family:DejaVu Sans;-inkscape-font-specification:DejaVu Sans Bold"
           id="path3072" />
        <path
           d="m 395.78133,268.07799 0,1.34441 1.56002,0 0,1.0823 -1.56002,0 0,2.00816 c 0,0.21984 0.0437,0.36922 0.13106,0.44814 0.0874,0.0761 0.2607,0.11415 0.52001,0.11415 l 0.77789,0 0,1.08229 -1.2979,0 c -0.59752,0 -1.0217,-0.12401 -1.27254,-0.37204 -0.24803,-0.25084 -0.37204,-0.67502 -0.37204,-1.27254 l 0,-2.00816 -0.75253,0 0,-1.0823 0.75253,0 0,-1.34441 1.51352,0"
           style="font-size:8.6583519px;font-weight:bold;fill:#1170b0;font-family:DejaVu Sans;-inkscape-font-specification:DejaVu Sans Bold"
           id="path3074" />
        <path
           d="m 401.7889,270.71186 c -0.13247,-0.062 -0.26494,-0.1071 -0.3974,-0.13529 -0.12966,-0.031 -0.26071,-0.0465 -0.39318,-0.0465 -0.38895,1e-5 -0.68912,0.12543 -0.9005,0.37627 -0.20857,0.24803 -0.31285,0.60457 -0.31285,1.06961 l 0,2.1815 -1.51352,0 0,-4.73504 1.51352,0 0,0.7779 c 0.19447,-0.31003 0.41713,-0.5355 0.66798,-0.67643 0.25366,-0.14374 0.55664,-0.21561 0.90895,-0.21561 0.0507,0 0.10569,0.003 0.16488,0.008 0.0592,0.003 0.14515,0.0113 0.2579,0.0254 l 0.004,1.36978"
           style="font-size:8.6583519px;font-weight:bold;fill:#1170b0;font-family:DejaVu Sans;-inkscape-font-specification:DejaVu Sans Bold"
           id="path3076" />
        <path
           d="m 402.54989,269.4224 1.51352,0 0,4.73504 -1.51352,0 0,-4.73504 m 0,-1.84328 1.51352,0 0,1.23449 -1.51352,0 0,-1.23449"
           style="font-size:8.6583519px;font-weight:bold;fill:#1170b0;font-family:DejaVu Sans;-inkscape-font-specification:DejaVu Sans Bold"
           id="path3078" />
        <path
           d="m 409.35228,269.57037 0,1.2345 c -0.20575,-0.14092 -0.41291,-0.24521 -0.62147,-0.31286 -0.20576,-0.0676 -0.41996,-0.10146 -0.64262,-0.10146 -0.42277,0 -0.75253,0.12402 -0.98928,0.37204 -0.23394,0.24521 -0.3509,0.58906 -0.3509,1.03156 0,0.4425 0.11696,0.78776 0.3509,1.03579 0.23675,0.24521 0.56651,0.36781 0.98928,0.36781 0.23675,0 0.46082,-0.0352 0.67221,-0.10569 0.2142,-0.0705 0.41149,-0.17475 0.59188,-0.31285 l 0,1.23872 c -0.23676,0.0874 -0.47774,0.15219 -0.72294,0.19447 -0.24239,0.0451 -0.48619,0.0676 -0.73139,0.0676 -0.854,0 -1.52198,-0.21843 -2.00394,-0.65529 -0.48196,-0.43968 -0.72294,-1.04988 -0.72294,-1.8306 0,-0.78071 0.24098,-1.3895 0.72294,-1.82637 0.48196,-0.43968 1.14994,-0.65952 2.00394,-0.65952 0.24802,0 0.49182,0.0225 0.73139,0.0676 0.24238,0.0423 0.48336,0.10711 0.72294,0.19447"
           style="font-size:8.6583519px;font-weight:bold;fill:#1170b0;font-family:DejaVu Sans;-inkscape-font-specification:DejaVu Sans Bold"
           id="path3080" />
        <path
           d="m 410.6671,269.4224 1.51352,0 0,4.73504 -1.51352,0 0,-4.73504 m 0,-1.84328 1.51352,0 0,1.23449 -1.51352,0 0,-1.23449"
           style="font-size:8.6583519px;font-weight:bold;fill:#1170b0;font-family:DejaVu Sans;-inkscape-font-specification:DejaVu Sans Bold"
           id="path3082" />
        <path
           d="m 415.29644,268.07799 0,1.34441 1.56002,0 0,1.0823 -1.56002,0 0,2.00816 c 0,0.21984 0.0437,0.36922 0.13106,0.44814 0.0874,0.0761 0.2607,0.11415 0.52001,0.11415 l 0.77789,0 0,1.08229 -1.2979,0 c -0.59752,0 -1.0217,-0.12401 -1.27254,-0.37204 -0.24803,-0.25084 -0.37204,-0.67502 -0.37204,-1.27254 l 0,-2.00816 -0.75253,0 0,-1.0823 0.75253,0 0,-1.34441 1.51352,0"
           style="font-size:8.6583519px;font-weight:bold;fill:#1170b0;font-family:DejaVu Sans;-inkscape-font-specification:DejaVu Sans Bold"
           id="path3084" />
        <path
           d="m 422.51314,271.77724 0,0.43123 -3.53859,0 c 0.0366,0.35512 0.16488,0.62147 0.38472,0.79903 0.21984,0.17757 0.52705,0.26635 0.92164,0.26635 0.31848,0 0.64402,-0.0465 0.9766,-0.13952 0.3354,-0.0958 0.67925,-0.23956 1.03156,-0.43122 l 0,1.16685 c -0.35795,0.13528 -0.71589,0.23675 -1.07384,0.30439 -0.35795,0.0705 -0.71589,0.10569 -1.07383,0.10569 -0.85682,0 -1.52339,-0.21702 -1.99971,-0.65106 -0.47351,-0.43687 -0.71026,-1.04847 -0.71026,-1.83483 0,-0.77226 0.23253,-1.37964 0.69758,-1.82214 0.46786,-0.4425 1.11047,-0.66375 1.92783,-0.66375 0.74408,0 1.33877,0.22407 1.7841,0.6722 0.44813,0.44814 0.6722,1.04707 0.6722,1.79678 m -1.5558,-0.5031 c 0,-0.28748 -0.0845,-0.51859 -0.25366,-0.69334 -0.16629,-0.17756 -0.38472,-0.26635 -0.65529,-0.26635 -0.29313,0 -0.53129,0.0831 -0.71449,0.24944 -0.1832,0.16347 -0.29735,0.40022 -0.34244,0.71025 l 1.96588,0 m -0.2452,-4.04169 1.19644,0 -1.56003,1.58962 -0.82863,0 1.19222,-1.58962"
           style="font-size:8.6583519px;font-weight:bold;fill:#1170b0;font-family:DejaVu Sans;-inkscape-font-specification:DejaVu Sans Bold"
           id="path3086" />
        <path
           d="m 431.39134,271.77724 0,0.43123 -3.5386,0 c 0.0366,0.35512 0.16488,0.62147 0.38473,0.79903 0.21983,0.17757 0.52705,0.26635 0.92164,0.26635 0.31848,0 0.64401,-0.0465 0.9766,-0.13952 0.33539,-0.0958 0.67925,-0.23956 1.03156,-0.43122 l 0,1.16685 c -0.35795,0.13528 -0.7159,0.23675 -1.07384,0.30439 -0.35795,0.0705 -0.71589,0.10569 -1.07384,0.10569 -0.85682,0 -1.52338,-0.21702 -1.9997,-0.65106 -0.47351,-0.43687 -0.71026,-1.04847 -0.71026,-1.83483 0,-0.77226 0.23252,-1.37964 0.69757,-1.82214 0.46787,-0.4425 1.11048,-0.66375 1.92784,-0.66375 0.74407,0 1.33877,0.22407 1.78409,0.6722 0.44813,0.44814 0.6722,1.04707 0.67221,1.79678 m -1.5558,-0.5031 c 0,-0.28748 -0.0846,-0.51859 -0.25366,-0.69334 -0.1663,-0.17756 -0.38473,-0.26635 -0.6553,-0.26635 -0.29312,0 -0.53128,0.0831 -0.71448,0.24944 -0.1832,0.16347 -0.29735,0.40022 -0.34244,0.71025 l 1.96588,0"
           style="font-size:8.6583519px;font-weight:bold;fill:#1170b0;font-family:DejaVu Sans;-inkscape-font-specification:DejaVu Sans Bold"
           id="path3088" />
        <path
           d="m 434.18585,268.07799 0,1.34441 1.56003,0 0,1.0823 -1.56003,0 0,2.00816 c 0,0.21984 0.0437,0.36922 0.13106,0.44814 0.0874,0.0761 0.26071,0.11415 0.52001,0.11415 l 0.7779,0 0,1.08229 -1.29791,0 c -0.59752,0 -1.0217,-0.12401 -1.27254,-0.37204 -0.24803,-0.25084 -0.37204,-0.67502 -0.37204,-1.27254 l 0,-2.00816 -0.75253,0 0,-1.0823 0.75253,0 0,-1.34441 1.51352,0"
           style="font-size:8.6583519px;font-weight:bold;fill:#1170b0;font-family:DejaVu Sans;-inkscape-font-specification:DejaVu Sans Bold"
           id="path3090" />
        <path
           d="m 442.90762,270.11575 0,-2.53663 1.52198,0 0,6.57832 -1.52198,0 0,-0.68489 c -0.20857,0.27903 -0.43828,0.48337 -0.68912,0.61302 -0.25084,0.12965 -0.54115,0.19447 -0.8709,0.19447 -0.58343,0 -1.06257,-0.23111 -1.43743,-0.69334 -0.37485,-0.46505 -0.56228,-1.06256 -0.56228,-1.79255 0,-0.72998 0.18743,-1.32609 0.56228,-1.78832 0.37486,-0.46505 0.854,-0.69757 1.43743,-0.69757 0.32694,0 0.61583,0.0662 0.86668,0.1987 0.25366,0.12965 0.48477,0.33258 0.69334,0.60879 m -0.99774,3.06509 c 0.32412,0 0.57074,-0.11838 0.73985,-0.35513 0.17192,-0.23675 0.25789,-0.5806 0.25789,-1.03156 0,-0.45095 -0.086,-0.79481 -0.25789,-1.03156 -0.16911,-0.23675 -0.41573,-0.35513 -0.73985,-0.35513 -0.32131,0 -0.56792,0.11838 -0.73985,0.35513 -0.16911,0.23675 -0.25366,0.58061 -0.25366,1.03156 0,0.45096 0.0846,0.79481 0.25366,1.03156 0.17193,0.23675 0.41854,0.35513 0.73985,0.35513"
           style="font-size:8.6583519px;font-weight:bold;fill:#1170b0;font-family:DejaVu Sans;-inkscape-font-specification:DejaVu Sans Bold"
           id="path3092" />
        <path
           d="m 445.84165,272.31416 0,-2.89176 1.52197,0 0,0.47351 c 0,0.25648 -0.001,0.5792 -0.004,0.96814 -0.003,0.38614 -0.004,0.64403 -0.004,0.77367 0,0.3805 0.01,0.6553 0.0296,0.82441 0.0197,0.16629 0.0535,0.28748 0.10147,0.36358 0.062,0.0986 0.14233,0.17475 0.24098,0.2283 0.10146,0.0535 0.21702,0.0803 0.34667,0.0803 0.31567,1e-5 0.56369,-0.12119 0.74408,-0.36358 0.18038,-0.24239 0.27057,-0.57919 0.27057,-1.01042 l 0,-2.33793 1.51352,0 0,4.73504 -1.51352,0 0,-0.68489 c -0.2283,0.27621 -0.47069,0.48055 -0.72717,0.61302 -0.25366,0.12965 -0.5341,0.19447 -0.84131,0.19447 -0.54679,0 -0.96392,-0.1677 -1.2514,-0.50309 -0.28467,-0.3354 -0.427,-0.823 -0.427,-1.46279"
           style="font-size:8.6583519px;font-weight:bold;fill:#1170b0;font-family:DejaVu Sans;-inkscape-font-specification:DejaVu Sans Bold"
           id="path3094" />
        <path
           d="m 460.8162,273.68816 c -0.40587,0.1973 -0.82723,0.34527 -1.26409,0.44391 -0.43686,0.0987 -0.88782,0.14797 -1.35286,0.14797 -1.0513,0 -1.88416,-0.29312 -2.49858,-0.87936 -0.61443,-0.58906 -0.92164,-1.38669 -0.92164,-2.39288 0,-1.01747 0.31285,-1.81792 0.93855,-2.40134 0.6257,-0.58342 1.48251,-0.87513 2.57045,-0.87514 0.41995,1e-5 0.82158,0.0395 1.2049,0.11838 0.38612,0.0789 0.7497,0.19589 1.09074,0.3509 l 0,1.30636 c -0.35231,-0.20011 -0.70321,-0.34949 -1.0527,-0.44814 -0.34667,-0.0986 -0.69475,-0.14796 -1.04424,-0.14797 -0.64825,1e-5 -1.14853,0.1818 -1.50084,0.54538 -0.34949,0.36076 -0.52424,0.87795 -0.52423,1.55157 -10e-6,0.66798 0.1691,1.18376 0.50732,1.54734 0.33822,0.36358 0.81877,0.54537 1.44165,0.54537 0.16911,0 0.32553,-0.01 0.46928,-0.0296 0.14655,-0.0226 0.27761,-0.0564 0.39317,-0.10147 l 0,-1.22603 -0.99351,0 0,-1.09075 2.53663,0 0,3.03549"
           style="font-size:8.6583519px;font-weight:bold;fill:#1170b0;font-family:DejaVu Sans;-inkscape-font-specification:DejaVu Sans Bold"
           id="path3096" />
        <path
           d="m 464.29983,272.02667 c -0.31567,10e-6 -0.55383,0.0536 -0.71448,0.16066 -0.15784,0.1071 -0.23675,0.26494 -0.23675,0.4735 0,0.19166 0.0634,0.34245 0.19024,0.45237 0.12965,0.1071 0.30863,0.16065 0.53692,0.16065 0.28467,0 0.52424,-0.10147 0.71871,-0.3044 0.19448,-0.20574 0.29171,-0.46222 0.29172,-0.76944 l 0,-0.17334 -0.78636,0 m 2.31256,-0.57074 0,2.70151 -1.5262,0 0,-0.7018 c -0.20294,0.28748 -0.43123,0.49746 -0.68489,0.62993 -0.25367,0.12965 -0.56229,0.19447 -0.92587,0.19447 -0.49042,0 -0.88923,-0.14233 -1.19644,-0.42699 -0.3044,-0.28749 -0.4566,-0.65953 -0.4566,-1.11612 0,-0.55524 0.19025,-0.96251 0.57075,-1.22181 0.38331,-0.2593 0.98364,-0.38895 1.801,-0.38895 l 0.89205,0 0,-0.11837 c -10e-6,-0.23957 -0.0944,-0.41432 -0.28326,-0.52424 -0.18884,-0.11274 -0.48337,-0.16911 -0.88359,-0.16911 -0.32413,0 -0.6257,0.0324 -0.90473,0.0972 -0.27903,0.0648 -0.53833,0.16206 -0.7779,0.29171 l 0,-1.15416 c 0.32412,-0.0789 0.64966,-0.13811 0.9766,-0.17757 0.32694,-0.0423 0.65388,-0.0634 0.98083,-0.0634 0.85399,0 1.46983,0.16911 1.84751,0.50732 0.38049,0.3354 0.57074,0.88219 0.57074,1.64035"
           style="font-size:8.6583519px;font-weight:bold;fill:#1170b0;font-family:DejaVu Sans;-inkscape-font-specification:DejaVu Sans Bold"
           id="path3098" />
        <path
           d="m 467.79616,269.4224 4.13047,0 0,1.05693 -2.49435,2.59582 2.49435,0 0,1.08229 -4.23617,0 0,-1.05693 2.49435,-2.59581 -2.38865,0 0,-1.0823"
           style="font-size:8.6583519px;font-weight:bold;fill:#1170b0;font-family:DejaVu Sans;-inkscape-font-specification:DejaVu Sans Bold"
           id="path3100" />
      </g>
    </g>
    <g
       id="g2928"
       transform="matrix(2.1382251,0,0,2.1382251,-474.31998,-405.80062)">
      <g
         transform="scale(0.97876631,1.0216943)"
         style="font-size:12.54959488px;font-style:normal;font-variant:normal;font-weight:normal;font-stretch:normal;line-height:125%;fill:#1170b0;fill-opacity:1;stroke:none;font-family:Serif;-inkscape-font-specification:Serif"
         id="text2918">
        <path
           d="m 459.29021,374.55679 -1.71111,0 0,-8.20555 1.71111,0 0,8.20555"
           style="font-size:14px;text-align:start;line-height:125%;writing-mode:lr-tb;text-anchor:start;fill:#1170b0;font-family:Tarablus;-inkscape-font-specification:Tarablus"
           id="path2965" />
        <path
           d="m 454.50335,372.84568 0,-6.49444 1.71111,0 0,8.20555 -2.73778,0 0,-1.71111 1.02667,0"
           style="font-size:14px;text-align:start;line-height:125%;writing-mode:lr-tb;text-anchor:start;fill:#1170b0;font-family:Tarablus;-inkscape-font-specification:Tarablus"
           id="path2967" />
        <path
           d="m 452.45087,372.84568 1.02667,0 0,1.71111 -9.43445,0 0,-1.71111 1.22889,0 0,-2.45 1.71111,0 0,2.45 1.02667,0 0,-2.45 1.70333,0 0,2.45 1.02667,0 0,-2.45 1.71111,0 0,2.45 m -3.81111,-3.67111 c -1e-5,0.1763 -0.0674,0.32927 -0.20222,0.45889 -0.12964,0.12445 -0.2826,0.18667 -0.45889,0.18667 -0.1763,0 -0.33186,-0.0622 -0.46667,-0.18667 -0.12963,-0.12444 -0.19445,-0.2774 -0.19444,-0.45889 -1e-5,-0.18147 0.0648,-0.33444 0.19444,-0.45889 0.12963,-0.12444 0.28518,-0.18666 0.46667,-0.18666 0.18147,0 0.33703,0.0622 0.46666,0.18666 0.12963,0.12445 0.19444,0.27742 0.19445,0.45889 m 1.54778,-0.0156 c -1e-5,0.18148 -0.0648,0.33444 -0.19445,0.45888 -0.12963,0.11927 -0.28519,0.1789 -0.46667,0.17889 -0.1763,1e-5 -0.32926,-0.0622 -0.45888,-0.18666 -0.12964,-0.12444 -0.19445,-0.27481 -0.19445,-0.45111 0,-0.18148 0.0622,-0.33444 0.18667,-0.45889 0.12962,-0.12963 0.28518,-0.19444 0.46666,-0.19445 0.18148,1e-5 0.33704,0.0648 0.46667,0.19445 0.12962,0.12445 0.19444,0.27741 0.19445,0.45889 m -0.74667,-1.36889 c -1e-5,0.18667 -0.0674,0.34223 -0.20222,0.46666 -0.12964,0.11927 -0.28779,0.1789 -0.47445,0.17889 -0.18148,1e-5 -0.33704,-0.0622 -0.46666,-0.18666 -0.12964,-0.12444 -0.19445,-0.27741 -0.19445,-0.45889 0,-0.17629 0.0648,-0.32666 0.19445,-0.45111 0.13481,-0.12963 0.29036,-0.19444 0.46666,-0.19445 0.18148,1e-5 0.33963,0.0622 0.47445,0.18667 0.13481,0.12445 0.20221,0.27741 0.20222,0.45889"
           style="font-size:14px;text-align:start;line-height:125%;writing-mode:lr-tb;text-anchor:start;fill:#1170b0;font-family:Tarablus;-inkscape-font-specification:Tarablus"
           id="path2969" />
        <path
           d="m 444.04491,372.84568 0,1.71111 -1.06555,0 0,1.15111 c -0.0726,0.38889 -0.46149,0.60148 -1.16667,0.63778 l -1.05,-0.88666 c 0.33704,-0.0259 0.50556,-0.32667 0.50556,-0.90223 l 0,-4.09889 1.71111,0 0,2.38778 1.06555,0"
           style="font-size:14px;text-align:start;line-height:125%;writing-mode:lr-tb;text-anchor:start;fill:#1170b0;font-family:Tarablus;-inkscape-font-specification:Tarablus"
           id="path2971" />
        <path
           d="m 435.41741,367.75902 -2.54333,2.35666 4.47222,0 c 1.3637,10e-6 2.04555,0.76482 2.04556,2.29445 -1e-5,1.43111 -0.68186,2.14666 -2.04556,2.14666 l -8.20555,0 0,-1.71111 8.61,0 c 0.4148,0 0.62221,-0.17888 0.62222,-0.53666 -1e-5,-0.32667 -0.20742,-0.49 -0.62222,-0.49 l -7.22556,0 0,-1.70334 2.48111,-2.35666 2.41111,0"
           style="font-size:14px;text-align:start;line-height:125%;writing-mode:lr-tb;text-anchor:start;fill:#1170b0;font-family:Tarablus;-inkscape-font-specification:Tarablus"
           id="path2973" />
        <path
           d="m 429.15217,372.84568 0,1.71111 -4.13778,0 c -0.91259,0 -1.36889,-0.43555 -1.36889,-1.30666 l 0,-1.65667 c 0,-0.98518 0.64815,-1.47777 1.94445,-1.47778 l 2.49667,0 0,2.73 1.06555,0 m -2.77667,0.68445 0,-2.21667 c -0.67926,0 -1.01889,0.18926 -1.01888,0.56778 l 0,0.95666 c -1e-5,0.46149 0.33962,0.69223 1.01888,0.69223 m -0.47444,-4.57334 c 0,0.1763 -0.0674,0.32927 -0.20222,0.45889 -0.12963,0.12445 -0.28001,0.18667 -0.45111,0.18667 -0.18149,0 -0.33964,-0.0622 -0.47445,-0.18667 -0.12963,-0.12962 -0.19444,-0.28259 -0.19444,-0.45889 0,-0.18147 0.0648,-0.33444 0.19444,-0.45889 0.12963,-0.12443 0.28778,-0.18666 0.47445,-0.18666 0.18148,0 0.33444,0.0622 0.45889,0.18666 0.12962,0.12445 0.19444,0.27742 0.19444,0.45889 m 1.54778,-0.0156 c -1e-5,0.18148 -0.0648,0.33445 -0.19445,0.45889 -0.12963,0.11926 -0.28519,0.17889 -0.46666,0.17889 -0.1763,0 -0.32927,-0.0622 -0.45889,-0.18667 -0.12964,-0.12444 -0.19445,-0.27481 -0.19445,-0.45111 0,-0.18666 0.0622,-0.34222 0.18667,-0.46667 0.12963,-0.12444 0.28518,-0.18666 0.46667,-0.18667 0.18147,1e-5 0.33703,0.0622 0.46666,0.18667 0.12963,0.12445 0.19444,0.28001 0.19445,0.46667"
           style="font-size:14px;text-align:start;line-height:125%;writing-mode:lr-tb;text-anchor:start;fill:#1170b0;font-family:Tarablus;-inkscape-font-specification:Tarablus"
           id="path2975" />
        <path
           d="m 418.4113,374.55679 -1.71111,0 0,-8.20555 1.71111,0 0,8.20555"
           style="font-size:14px;text-align:start;line-height:125%;writing-mode:lr-tb;text-anchor:start;fill:#1170b0;font-family:Tarablus;-inkscape-font-specification:Tarablus"
           id="path2977" />
        <path
           d="m 413.62444,372.84568 0,-6.49444 1.71112,0 0,8.20555 -2.73778,0 0,-1.71111 1.02666,0"
           style="font-size:14px;text-align:start;line-height:125%;writing-mode:lr-tb;text-anchor:start;fill:#1170b0;font-family:Tarablus;-inkscape-font-specification:Tarablus"
           id="path2979" />
        <path
           d="m 411.57135,370.38013 0,2.46555 1.02667,0 0,1.71111 -5.19555,0 0,-1.71111 2.45777,0 0,-2.46555 1.71111,0 m -2.78444,-1.20556 c 0,0.1763 -0.0674,0.32927 -0.20222,0.45889 -0.12963,0.12445 -0.2826,0.18667 -0.45889,0.18667 -0.1763,0 -0.33185,-0.0622 -0.46667,-0.18667 -0.12963,-0.12444 -0.19444,-0.2774 -0.19444,-0.45889 0,-0.18147 0.0648,-0.33444 0.19444,-0.45889 0.12963,-0.12444 0.28519,-0.18666 0.46667,-0.18666 0.18148,0 0.33704,0.0622 0.46667,0.18666 0.12962,0.12445 0.19444,0.27742 0.19444,0.45889 m 1.54778,-0.0156 c 0,0.18148 -0.0648,0.33444 -0.19445,0.45888 -0.12963,0.11927 -0.28518,0.1789 -0.46666,0.17889 -0.1763,1e-5 -0.33186,-0.0622 -0.46667,-0.18666 -0.12963,-0.12444 -0.19445,-0.27481 -0.19444,-0.45111 -1e-5,-0.18148 0.0648,-0.33444 0.19444,-0.45889 0.12963,-0.12963 0.28518,-0.19444 0.46667,-0.19445 0.18148,1e-5 0.33703,0.0648 0.46666,0.19445 0.12963,0.12445 0.19445,0.27741 0.19445,0.45889"
           style="font-size:14px;text-align:start;line-height:125%;writing-mode:lr-tb;text-anchor:start;fill:#1170b0;font-family:Tarablus;-inkscape-font-specification:Tarablus"
           id="path2981" />
        <path
           d="m 407.41389,372.84568 0,1.71111 -1.06556,0 0,1.15111 c -0.0674,0.38889 -0.4537,0.60148 -1.15889,0.63778 l -1.05777,-0.88666 c 0.33703,-0.0259 0.50555,-0.32667 0.50555,-0.90223 l -1.36111,0 c -0.91259,0 -1.36889,-0.43555 -1.36889,-1.30666 l 0,-1.65667 c 0,-0.98518 0.64815,-1.47777 1.94445,-1.47778 l 2.49666,0 0,2.73 1.06556,0 m -2.77667,0.68445 0,-2.21667 c -0.67926,0 -1.01889,0.18926 -1.01889,0.56778 l 0,0.95666 c 0,0.46149 0.33963,0.69223 1.01889,0.69223"
           style="font-size:14px;text-align:start;line-height:125%;writing-mode:lr-tb;text-anchor:start;fill:#1170b0;font-family:Tarablus;-inkscape-font-specification:Tarablus"
           id="path2983" />
        <path
           d="m 400.52448,370.38013 0,4.17666 -4.16889,0 0,-1.71111 2.45778,0 0,-2.46555 1.71111,0 m -2.24,-1.20556 c 0,0.1763 -0.0674,0.32927 -0.20222,0.45889 -0.12963,0.12445 -0.2826,0.18667 -0.45889,0.18667 -0.1763,0 -0.33185,-0.0622 -0.46667,-0.18667 -0.12963,-0.12444 -0.19444,-0.2774 -0.19444,-0.45889 0,-0.18147 0.0648,-0.33444 0.19444,-0.45889 0.12963,-0.12444 0.28519,-0.18666 0.46667,-0.18666 0.18666,0 0.34222,0.0622 0.46667,0.18666 0.12962,0.12445 0.19444,0.27742 0.19444,0.45889"
           style="font-size:14px;text-align:start;line-height:125%;writing-mode:lr-tb;text-anchor:start;fill:#1170b0;font-family:Tarablus;-inkscape-font-specification:Tarablus"
           id="path2985" />
        <path
           d="m 395.32977,372.84568 1.02667,0 0,1.71111 -9.43444,0 0,-1.71111 1.22889,0 0,-2.45 1.71111,0 0,2.45 1.02666,0 0,-2.45 1.70334,0 0,2.45 1.02666,0 0,-2.45 1.71111,0 0,2.45"
           style="font-size:14px;text-align:start;line-height:125%;writing-mode:lr-tb;text-anchor:start;fill:#1170b0;font-family:Tarablus;-inkscape-font-specification:Tarablus"
           id="path2987" />
        <path
           d="m 385.89557,370.38013 0,2.46555 1.02667,0 0,1.71111 -5.19556,0 0,-1.71111 2.45778,0 0,-2.46555 1.71111,0 m -2.68333,5.57666 c 0,0.1763 -0.0674,0.32667 -0.20222,0.45111 -0.12963,0.12963 -0.2826,0.19445 -0.45889,0.19445 -0.1763,0 -0.33185,-0.0648 -0.46667,-0.19445 -0.12963,-0.12444 -0.19444,-0.27481 -0.19444,-0.45111 0,-0.18148 0.0648,-0.33444 0.19444,-0.45889 0.12963,-0.12444 0.28519,-0.18666 0.46667,-0.18666 0.18666,0 0.34222,0.0622 0.46667,0.18666 0.12962,0.12445 0.19444,0.27741 0.19444,0.45889 m 1.57111,0 c 0,0.1763 -0.0674,0.32667 -0.20222,0.45111 -0.12963,0.12963 -0.2826,0.19445 -0.45889,0.19445 -0.1763,0 -0.33185,-0.0648 -0.46667,-0.19445 -0.12963,-0.12444 -0.19444,-0.27481 -0.19444,-0.45111 0,-0.18148 0.0648,-0.33444 0.19444,-0.45889 0.12963,-0.12444 0.28519,-0.18666 0.46667,-0.18666 0.18666,0 0.34222,0.0622 0.46667,0.18666 0.12962,0.12445 0.19444,0.27741 0.19444,0.45889"
           style="font-size:14px;text-align:start;line-height:125%;writing-mode:lr-tb;text-anchor:start;fill:#1170b0;font-family:Tarablus;-inkscape-font-specification:Tarablus"
           id="path2989" />
        <path
           d="m 381.73811,372.84568 0,1.71111 -4.13778,0 c -0.91259,0 -1.36889,-0.43555 -1.36889,-1.30666 l 0,-1.65667 c 0,-0.98518 0.64815,-1.47777 1.94445,-1.47778 l 2.49666,0 0,2.73 1.06556,0 m -2.77667,0.68445 0,-2.21667 c -0.67926,0 -1.01889,0.18926 -1.01889,0.56778 l 0,0.95666 c 0,0.46149 0.33963,0.69223 1.01889,0.69223 m -0.47444,-4.57334 c -1e-5,0.1763 -0.0674,0.32927 -0.20223,0.45889 -0.12963,0.12445 -0.28,0.18667 -0.45111,0.18667 -0.18148,0 -0.33963,-0.0622 -0.47444,-0.18667 -0.12963,-0.12962 -0.19445,-0.28259 -0.19445,-0.45889 0,-0.18147 0.0648,-0.33444 0.19445,-0.45889 0.12963,-0.12443 0.28777,-0.18666 0.47444,-0.18666 0.18148,0 0.33445,0.0622 0.45889,0.18666 0.12963,0.12445 0.19444,0.27742 0.19445,0.45889 m 1.54777,-0.0156 c 0,0.18148 -0.0648,0.33445 -0.19444,0.45889 -0.12963,0.11926 -0.28519,0.17889 -0.46667,0.17889 -0.1763,0 -0.32926,-0.0622 -0.45889,-0.18667 -0.12963,-0.12444 -0.19444,-0.27481 -0.19444,-0.45111 0,-0.18666 0.0622,-0.34222 0.18667,-0.46667 0.12962,-0.12444 0.28518,-0.18666 0.46666,-0.18667 0.18148,1e-5 0.33704,0.0622 0.46667,0.18667 0.12963,0.12445 0.19444,0.28001 0.19444,0.46667"
           style="font-size:14px;text-align:start;line-height:125%;writing-mode:lr-tb;text-anchor:start;fill:#1170b0;font-family:Tarablus;-inkscape-font-specification:Tarablus"
           id="path2991" />
      </g>
      <g
         transform="scale(1.0672796,0.93696161)"
         style="font-size:16.56234741px;font-style:normal;font-variant:normal;font-weight:normal;font-stretch:normal;fill:#1170b0;fill-opacity:1;stroke:none;font-family:Serif;-inkscape-font-specification:Serif"
         id="text2924">
        <path
           d="m 419.1041,421.0578 0,-6.90442 1.81912,0 0,8.72354 -2.9106,0 0,-1.81912 1.09148,0"
           style="font-size:14.88376904px;fill:#1170b0;font-family:Tarablus;-inkscape-font-specification:Tarablus"
           id="path2994" />
        <path
           d="m 418.02386,422.87692 -3.99381,0 0,-1.81912 1.09148,0 0,-6.90442 1.81913,0 0,6.90442 1.0832,0 0,1.81912"
           style="font-size:14.88376904px;fill:#1170b0;font-family:Tarablus;-inkscape-font-specification:Tarablus"
           id="path2996" />
        <path
           d="m 414.02669,422.87692 -1.09974,0 0,-1.46357 c -0.23154,0.97572 -0.92887,1.46357 -2.092,1.46357 l -8.72354,0 0,-1.81912 9.15352,0 c 0.44099,0 0.66149,-0.19018 0.6615,-0.57055 -10e-6,-0.34728 -0.22051,-0.52093 -0.6615,-0.52093 l -7.68168,0 0,-1.81086 2.63773,-2.50543 2.56332,0 -2.70389,2.50543 4.75454,0 c 1.44978,10e-6 2.17467,0.8131 2.17468,2.43928 -1e-5,0.16538 -0.006,0.31973 -0.0165,0.46306 l 1.03359,0 0,1.81912"
           style="font-size:14.88376904px;fill:#1170b0;font-family:Tarablus;-inkscape-font-specification:Tarablus"
           id="path2998" />
        <path
           d="m 396.96268,419.16425 c 0.96469,0 1.44703,0.5292 1.44704,1.5876 -10e-6,0.11025 -0.003,0.21223 -0.008,0.30595 l 0.74419,0 0,-2.11681 c -1e-5,-0.33074 -0.17365,-0.49612 -0.52094,-0.49612 l -3.08424,0 0.77726,-1.09148 2.30698,0 c 1.56004,1e-5 2.34006,0.55677 2.34006,1.67029 l 0,2.03412 1.15763,0 0,1.81912 -7.77264,0 0,-1.81912 1.17417,0 c -0.011,-0.0937 -0.0165,-0.1957 -0.0165,-0.30595 0,-1.0584 0.4851,-1.5876 1.4553,-1.5876 m 0.3721,1.33954 c -1e-5,-0.38036 -0.12955,-0.57054 -0.38863,-0.57055 -0.26461,10e-6 -0.39691,0.19019 -0.39691,0.57055 l 0,0.2894 c 0,0.0992 0.011,0.18743 0.0331,0.26461 l 0.72765,0 c 0.0165,-0.0772 0.0248,-0.16538 0.0248,-0.26461 l 0,-0.2894"
           style="font-size:14.88376904px;fill:#1170b0;font-family:Tarablus;-inkscape-font-specification:Tarablus"
           id="path3000" />
        <path
           d="m 394.3517,421.0578 0,1.81912 -1.13282,0 0,1.22378 c -0.0772,0.41344 -0.49062,0.63945 -1.24032,0.67804 l -1.11628,-0.94264 c 0.35831,-0.0276 0.53747,-0.34729 0.53747,-0.95918 l 0,-4.35763 1.81913,0 0,2.53851 1.13282,0"
           style="font-size:14.88376904px;fill:#1170b0;font-family:Tarablus;-inkscape-font-specification:Tarablus"
           id="path3002" />
        <path
           d="m 389.39225,418.4366 0,4.44032 -4.43206,0 0,-1.81912 2.61293,0 0,-2.6212 1.81913,0 m -1.91008,5.9287 c -10e-6,0.18742 -0.0717,0.34729 -0.21499,0.47959 -0.13782,0.13781 -0.29768,0.20671 -0.47959,0.20672 -0.19294,-10e-6 -0.36107,-0.0689 -0.50439,-0.20672 -0.13782,-0.1323 -0.20672,-0.29217 -0.20672,-0.47959 0,-0.19294 0.0689,-0.35556 0.20672,-0.48786 0.13781,-0.1323 0.30594,-0.19845 0.50439,-0.19845 0.19294,0 0.35555,0.0661 0.48786,0.19845 0.13781,0.1323 0.20671,0.29492 0.20672,0.48786"
           style="font-size:14.88376904px;fill:#1170b0;font-family:Tarablus;-inkscape-font-specification:Tarablus"
           id="path3004" />
        <path
           d="m 383.87324,421.0578 1.0832,0 0,1.81912 -2.90233,0 0,-8.72354 1.81913,0 0,6.90442"
           style="font-size:14.88376904px;fill:#1170b0;font-family:Tarablus;-inkscape-font-specification:Tarablus"
           id="path3006" />
        <path
           d="m 380.55255,419.56942 0,1.07494 -1.56279,0 c -0.17641,0 -0.26461,0.12679 -0.2646,0.38036 -1e-5,0.17089 0.0524,0.33902 0.1571,0.50439 0.11576,0.17641 0.25082,0.26461 0.40517,0.2646 l 1.26512,0 0,1.08321 -3.32404,0 0,-1.08321 0.7938,0 c -0.37485,-0.22049 -0.56227,-0.58983 -0.56227,-1.10801 0,-0.29767 0.091,-0.554 0.27287,-0.76899 0.18742,-0.23153 0.42721,-0.34729 0.71938,-0.34729 l 2.10026,0"
           style="font-size:14.88376904px;fill:#1170b0;font-family:Tarablus;-inkscape-font-specification:Tarablus"
           id="path3008" />
        <path
           d="m 371.65924,424.1007 c -0.0717,0.41344 -0.48235,0.63945 -1.23204,0.67804 l -1.12455,-0.94264 c 0.35831,-0.0276 0.53746,-0.34729 0.53747,-0.95918 l -1.44704,0 c -0.9702,0 -1.4553,-0.46305 -1.4553,-1.38915 l 0,-1.76125 c 0,-1.04737 0.68906,-1.57105 2.06719,-1.57106 l 2.65427,0 0,5.94524 m -1.81912,-2.31525 0,-2.3566 c -0.72214,0 -1.08321,0.20121 -1.08321,0.60362 l 0,1.01706 c 0,0.49061 0.36107,0.73592 1.08321,0.73592"
           style="font-size:14.88376904px;fill:#1170b0;font-family:Tarablus;-inkscape-font-specification:Tarablus"
           id="path3010" />
        <path
           d="m 365.50108,422.87692 -1.81912,0 0,-8.72354 1.81912,0 0,8.72354"
           style="font-size:14.88376904px;fill:#1170b0;font-family:Tarablus;-inkscape-font-specification:Tarablus"
           id="path3012" />
        <path
           d="m 360.41205,421.0578 0,-6.90442 1.81913,0 0,8.72354 -2.91061,0 0,-1.81912 1.09148,0"
           style="font-size:14.88376904px;fill:#1170b0;font-family:Tarablus;-inkscape-font-specification:Tarablus"
           id="path3014" />
        <path
           d="m 355.98749,415.66656 c -10e-6,0.18744 -0.0717,0.35005 -0.21499,0.48786 -0.13782,0.13231 -0.30044,0.19846 -0.48786,0.19845 -0.18743,1e-5 -0.3528,-0.0661 -0.49612,-0.19845 -0.13782,-0.13781 -0.20672,-0.30042 -0.20672,-0.48786 0,-0.19293 0.0689,-0.35555 0.20672,-0.48785 0.13781,-0.1323 0.30318,-0.19845 0.49612,-0.19845 0.19294,0 0.35831,0.0661 0.49613,0.19845 0.13781,0.1323 0.20671,0.29492 0.20672,0.48785 m -1.02533,5.39124 4.37418,0 0,1.81912 -7.63207,0 0,-1.81912 1.43876,0 0,-2.29045 c 0,-0.93712 0.769,-1.40569 2.30699,-1.40569 1.60965,0 2.41447,0.46857 2.41448,1.40569 l 0,1.22378 -1.81086,0 0,-0.62016 c -10e-6,-0.52369 -0.17916,-0.78553 -0.53747,-0.78553 -0.36934,0 -0.55401,0.26184 -0.55401,0.78553 l 0,1.68683"
           style="font-size:14.88376904px;fill:#1170b0;font-family:Tarablus;-inkscape-font-specification:Tarablus"
           id="path3016" />
        <path
           d="m 350.61732,421.0578 1.0832,0 0,1.81912 -2.90233,0 0,-8.72354 1.81913,0 0,6.90442"
           style="font-size:14.88376904px;fill:#1170b0;font-family:Tarablus;-inkscape-font-specification:Tarablus"
           id="path3018" />
        <path
           d="m 347.30258,424.1007 c -0.0717,0.41344 -0.48511,0.63945 -1.24032,0.67804 l -1.11628,-0.94264 c 0.35831,-0.0276 0.53747,-0.34729 0.53747,-0.95918 l 0,-4.35763 1.81913,0 0,5.58141 m -0.21499,-7.01191 c 0,0.18192 -0.0717,0.34178 -0.21499,0.47959 -0.13781,0.1323 -0.29768,0.19845 -0.47959,0.19845 -0.18742,0 -0.3528,-0.0662 -0.49612,-0.19845 -0.13782,-0.1323 -0.20672,-0.29216 -0.20672,-0.47959 0,-0.19844 0.0689,-0.36382 0.20672,-0.49613 0.13781,-0.13229 0.30318,-0.19844 0.49612,-0.19845 0.19294,1e-5 0.35556,0.0662 0.48786,0.19845 0.13781,0.13231 0.20672,0.29769 0.20672,0.49613"
           style="font-size:14.88376904px;fill:#1170b0;font-family:Tarablus;-inkscape-font-specification:Tarablus"
           id="path3020" />
      </g>
    </g>
  </g>
</svg>
