<?xml version="1.0" encoding="UTF-8"?>
<svg version="1.1" xmlns="http://www.w3.org/2000/svg" width="200" height="200">
<path d="M0 0 C66 0 132 0 200 0 C200 66 200 132 200 200 C134 200 68 200 0 200 C0 134 0 68 0 0 Z " fill="#010000" transform="translate(0,0)"/>
<path d="M0 0 C66 0 132 0 200 0 C200 25.41 200 50.82 200 77 C134 77 68 77 0 77 C0 51.59 0 26.18 0 0 Z " fill="#000000" transform="translate(0,123)"/>
<path d="M0 0 C0.99 0 1.98 0 3 0 C3.33 10.23 3.66 20.46 4 31 C66.37 31 128.74 31 193 31 C193 33.64 193 36.28 193 39 C127 39 61 39 -7 39 C-7 36.36 -7 33.72 -7 31 C-4.69 31 -2.38 31 0 31 C0 20.77 0 10.54 0 0 Z " fill="#181717" transform="translate(7,84)"/>
<path d="M0 0 C2.8125 1.0625 2.8125 1.0625 5 3 C6.125 6.375 6.125 6.375 6 10 C4.02953982 12.98747189 2.57637321 14.61681046 -0.9765625 15.48046875 C-4.69516425 15.73812468 -6.66505908 15.2695866 -9.5625 12.9375 C-11.44610971 9.08838451 -11.207644 7.07579849 -10 3 C-7.06325444 -0.37181898 -4.31965697 -0.52893759 0 0 Z " fill="#EDEDED" transform="translate(160,95)"/>
<path d="M0 0 C1.65 0 3.3 0 5 0 C5.33 3.3 5.66 6.6 6 10 C6.721875 9.175 7.44375 8.35 8.1875 7.5 C11 5 11 5 13.8125 4.6875 C14.534375 4.790625 15.25625 4.89375 16 5 C15.319375 5.721875 14.63875 6.44375 13.9375 7.1875 C11.76362282 9.77391666 11.76362282 9.77391666 12 12.5 C13.19996267 15.49990667 14.86674005 17.5914807 17 20 C14.1875 20.25 14.1875 20.25 11 20 C9.25 18 9.25 18 8 16 C7.34 16 6.68 16 6 16 C5.67 17.32 5.34 18.64 5 20 C3.35 20 1.7 20 0 20 C0 13.4 0 6.8 0 0 Z " fill="#F2F2F2" transform="translate(78,90)"/>
<path d="M0 0 C2.875 1.6875 2.875 1.6875 5 4 C5 5.65 5 7.3 5 9 C1.7 9.33 -1.6 9.66 -5 10 C-2.36 10 0.28 10 3 10 C3.33 11.32 3.66 12.64 4 14 C0.77001957 15.61499021 -2.50809992 15.57976204 -6 15 C-9.0625 12.9375 -9.0625 12.9375 -11 10 C-11.06641554 6.14789873 -10.87229157 4.00151995 -8.3125 1.0625 C-5.24716836 -0.34589562 -3.34404315 -0.47772045 0 0 Z " fill="#DCDCDC" transform="translate(68,95)"/>
<path d="M0 0 C2.875 2.25 2.875 2.25 5 5 C5 6.32 5 7.64 5 9 C-0.445 9.495 -0.445 9.495 -6 10 C-3.36 10 -0.72 10 2 10 C2.33 11.32 2.66 12.64 3 14 C-0.19877392 15.59938696 -3.52144213 15.35748026 -7 15 C-9.5 14 -9.5 14 -11 12 C-11.45326577 8.82713964 -11.69618391 7.00872525 -11 4 C-7.75032314 0.17685075 -4.94151119 -0.92653335 0 0 Z " fill="#DBDBDB" transform="translate(109,95)"/>
<path d="M0 0 C1.9375 1.25 1.9375 1.25 3 3 C3 4.65 3 6.3 3 8 C-0.3 8.33 -3.6 8.66 -7 9 C-4.36 9 -1.72 9 1 9 C1.33 9.99 1.66 10.98 2 12 C-1.75047482 14.50031654 -3.55856266 14.53603554 -8 14 C-11 11.9375 -11 11.9375 -13 9 C-13.125 5.375 -13.125 5.375 -12 2 C-8.14376042 -1.62940196 -4.95339506 -1.28421353 0 0 Z " fill="#DDDDDD" transform="translate(50,96)"/>
<path d="M0 0 C5.94 0 11.88 0 18 0 C18 1.32 18 2.64 18 4 C16.02 4 14.04 4 12 4 C12 8.95 12 13.9 12 19 C10.35 19 8.7 19 7 19 C7 13.72 7 8.44 7 3 C4.69 3 2.38 3 0 3 C0 2.01 0 1.02 0 0 Z " fill="#E8E8E8" transform="translate(18,91)"/>
<path d="M0 0 C0.66 0.33 1.32 0.66 2 1 C2 2.32 2 3.64 2 5 C-0.64 4.67 -3.28 4.34 -6 4 C-6 4.66 -6 5.32 -6 6 C-4.88625 6.144375 -3.7725 6.28875 -2.625 6.4375 C1 7 1 7 3 8 C3.1875 10.375 3.1875 10.375 3 13 C-0.20380017 15.13586678 -1.01939967 15.23132175 -4.6875 15.125 C-5.49574219 15.10695313 -6.30398437 15.08890625 -7.13671875 15.0703125 C-8.05904297 15.03550781 -8.05904297 15.03550781 -9 15 C-9.33 13.68 -9.66 12.36 -10 11 C-7.36 10.67 -4.72 10.34 -2 10 C-4.31 9.34 -6.62 8.68 -9 8 C-9.33 6.35 -9.66 4.7 -10 3 C-6.68587278 -0.05919435 -4.45155852 -0.38709205 0 0 Z " fill="#EEEEEE" transform="translate(142,95)"/>
<path d="M0 0 C1.134375 0.020625 2.26875 0.04125 3.4375 0.0625 C3.4375 1.0525 3.4375 2.0425 3.4375 3.0625 C2.1175 3.0625 0.7975 3.0625 -0.5625 3.0625 C-0.5625 4.0525 -0.5625 5.0425 -0.5625 6.0625 C0.7575 6.0625 2.0775 6.0625 3.4375 6.0625 C3.4375 7.0525 3.4375 8.0425 3.4375 9.0625 C2.1175 9.0625 0.7975 9.0625 -0.5625 9.0625 C-0.5625 12.6925 -0.5625 16.3225 -0.5625 20.0625 C-2.2125 20.0625 -3.8625 20.0625 -5.5625 20.0625 C-5.5625 16.4325 -5.5625 12.8025 -5.5625 9.0625 C-6.2225 9.0625 -6.8825 9.0625 -7.5625 9.0625 C-7.5625 8.0725 -7.5625 7.0825 -7.5625 6.0625 C-6.9025 6.0625 -6.2425 6.0625 -5.5625 6.0625 C-5.418125 5.258125 -5.27375 4.45375 -5.125 3.625 C-4.26443625 -0.29534596 -4.23242358 0.07425305 0 0 Z " fill="#F1F1F1" transform="translate(176.5625,89.9375)"/>
<path d="M0 0 C1.65 0 3.3 0 5 0 C5 1.32 5 2.64 5 4 C6.32 4 7.64 4 9 4 C9 4.99 9 5.98 9 7 C7.68 7 6.36 7 5 7 C5 9.31 5 11.62 5 14 C6.32 14 7.64 14 9 14 C9.33 15.32 9.66 16.64 10 18 C3.69181722 18.35706695 3.69181722 18.35706695 1.0625 17 C-0.67278693 13.73357754 -0.17982715 10.65648548 0 7 C-0.66 7 -1.32 7 -2 7 C-2 5.68 -2 4.36 -2 3 C-1.34 3 -0.68 3 0 3 C0 2.01 0 1.02 0 0 Z " fill="#E9E9E9" transform="translate(184,92)"/>
<path d="M0 0 C0.99 0 1.98 0 3 0 C3 10.89 3 21.78 3 33 C2.01 33 1.02 33 0 33 C0 22.11 0 11.22 0 0 Z " fill="#CE1515" transform="translate(7,84)"/>
<path d="M0 0 C3.3 0 6.6 0 10 0 C10 1.32 10 2.64 10 4 C9.03320312 4.35191406 9.03320312 4.35191406 8.046875 4.7109375 C5.7922092 5.81161073 5.7922092 5.81161073 5.390625 8.1640625 C5.34421875 8.97617188 5.2978125 9.78828125 5.25 10.625 C5.19328125 11.44226563 5.1365625 12.25953125 5.078125 13.1015625 C5.05234375 13.72804688 5.0265625 14.35453125 5 15 C3.35 15 1.7 15 0 15 C0 10.05 0 5.1 0 0 Z " fill="#E3E3E3" transform="translate(118,95)"/>
<path d="M0 0 C1.67542976 0.28604898 3.34385343 0.61781233 5 1 C5.38218767 2.65614657 5.71395102 4.32457024 6 6 C5 7 5 7 2.5 7.125 C0 7 0 7 -1 6 C-1.125 3.5 -1.125 3.5 -1 1 C-0.67 0.67 -0.34 0.34 0 0 Z " fill="#0A0B0B" transform="translate(155,99)"/>
</svg>
